<svg xmlns="http://www.w3.org/2000/svg" width="252.17" height="31.6" viewBox="0 0 252.17 31.6"><defs><style>.cls-1{fill:#231f20;}</style></defs><title>Asset 1</title><g id="Layer_2" data-name="Layer 2"><g id="Layer_1-2" data-name="Layer 1"><path class="cls-1" d="M251.54,16.27a5.44,5.44,0,0,1,.88,3.16A5.67,5.67,0,0,1,250.28,24a9.14,9.14,0,0,1-6,1.77q-7,0-8.33-5.4l4.54-.67q.56,2.46,4,2.46a4.84,4.84,0,0,0,2.26-.48,1.43,1.43,0,0,0,.92-1.29q0-1.28-2-1.5c-3.68-.46-6.11-1.16-7.27-2.12a4.9,4.9,0,0,1-1.74-4,5.36,5.36,0,0,1,2-4.3,8.53,8.53,0,0,1,5.67-1.7A8.33,8.33,0,0,1,249,7.93a7,7,0,0,1,2.65,3.65l-3.92,1a3.27,3.27,0,0,0-3.56-2.47c-1.8,0-2.71.55-2.71,1.65a1.27,1.27,0,0,0,.5,1,6.59,6.59,0,0,0,2.59.65,24.24,24.24,0,0,1,4.63,1A4.74,4.74,0,0,1,251.54,16.27Z" transform="translate(-0.25 -0.25)"/><path class="cls-1" d="M225.9,11q-2.84,0-2.84,4.19V25.41h-5.38V7.17h5v3.09a7,7,0,0,1,2.46-2.84,5.6,5.6,0,0,1,2.62-.63A6.08,6.08,0,0,1,232,8.19c1.06.93,1.59,2.77,1.59,5.5V25.41h-5.38V15.17a14.2,14.2,0,0,0-.15-2.55,2.05,2.05,0,0,0-.7-1.16A2.11,2.11,0,0,0,225.9,11Z" transform="translate(-0.25 -0.25)"/><path class="cls-1" d="M208.08,22.56a7.49,7.49,0,0,1-2.73,2.59,7.15,7.15,0,0,1-3.09.64,6,6,0,0,1-4.14-1.39,4.73,4.73,0,0,1-1.58-3.74,5.82,5.82,0,0,1,.92-3.16,6.05,6.05,0,0,1,3-2.27A28.76,28.76,0,0,1,207.85,14V13a2.35,2.35,0,0,0-2.65-2.66A2.79,2.79,0,0,0,202.05,13l-5-.47A5.67,5.67,0,0,1,200,8.09a11.64,11.64,0,0,1,5.56-1.3,13.72,13.72,0,0,1,3.51.43,5.83,5.83,0,0,1,2.56,1.3,4.51,4.51,0,0,1,1.25,1.84,11.82,11.82,0,0,1,.32,3.37V22a12.34,12.34,0,0,0,.33,3.41h-5.22A12.8,12.8,0,0,1,208.08,22.56Zm-3.58-.13a3,3,0,0,0,2.39-1.18,4.48,4.48,0,0,0,1-2.92V16.67q-5.64.55-5.64,3.41a2.47,2.47,0,0,0,.6,1.66A2.1,2.1,0,0,0,204.5,22.43Z" transform="translate(-0.25 -0.25)"/><path class="cls-1" d="M194.25,17.19H182.5c0,.33,0,.61,0,.85a3.91,3.91,0,0,0,1,2.95A3.49,3.49,0,0,0,186,22q2.69,0,3.23-2.87l4.88.36q-2,6.33-8.29,6.32a9.18,9.18,0,0,1-4.64-1.09,8.59,8.59,0,0,1-3.14-3.19,9.63,9.63,0,0,1-1.24-5,9.9,9.9,0,0,1,2.49-7,8.79,8.79,0,0,1,12.43-.19Q194.25,11.76,194.25,17.19Zm-11.77-3.12H189q-.25-3.77-3.09-3.76Q182.85,10.31,182.48,14.07Z" transform="translate(-0.25 -0.25)"/><path class="cls-1" d="M173.13,14.87a6.18,6.18,0,0,1,1.28,3.75,6.42,6.42,0,0,1-2.1,4.78q-2.09,2-6.81,2H154V.75H165.5a11.13,11.13,0,0,1,4.65.76,6.8,6.8,0,0,1,2.56,2.17,5.75,5.75,0,0,1,1,3.43q0,4.09-4.44,5.47A6.33,6.33,0,0,1,173.13,14.87Zm-4.77,3a2.73,2.73,0,0,0-.91-2.06,4.21,4.21,0,0,0-3-.87h-4.69v5.94h4.44a5,5,0,0,0,3.21-.79A2.77,2.77,0,0,0,168.36,17.83ZM167.8,7.75a2.62,2.62,0,0,0-.52-1.62,2.17,2.17,0,0,0-1.13-.85,10.53,10.53,0,0,0-2.42-.17h-4v5.4h4.38c1.6,0,2.61-.32,3-.95A3.3,3.3,0,0,0,167.8,7.75Z" transform="translate(-0.25 -0.25)"/><path class="cls-1" d="M137.44,25.29a1.41,1.41,0,0,0-.82.43,1.34,1.34,0,0,0-.49,1.05c0,.82.52,1.33,1.57,1.54a19.83,19.83,0,0,0,3.68.3,12.69,12.69,0,0,0,3.88-.41,1.43,1.43,0,0,0,1.11-1.34q0-.7-.93-1.08a18,18,0,0,0-5-.38H139.4a10,10,0,0,1-1.34-.05A3.24,3.24,0,0,0,137.44,25.29Zm3.61-10.08a3,3,0,0,0,2.26-.82,2.64,2.64,0,0,0,.82-2,2.71,2.71,0,0,0-.77-1.9A3.06,3.06,0,0,0,141,9.7a3,3,0,0,0-2.17.75,2.61,2.61,0,0,0-.78,2Q138.08,15.21,141.05,15.21Zm0-8.42a14.81,14.81,0,0,1,4.82.79A5,5,0,0,1,146.81,5c.5-.67,1.57-1,3.19-1a7.46,7.46,0,0,1,1.52.15V7.58a7.12,7.12,0,0,0-1.43-.18A1.86,1.86,0,0,0,148,9a4.93,4.93,0,0,1,1.46,3.47,4.81,4.81,0,0,1-2.16,4.12,10.67,10.67,0,0,1-6.22,1.54,14.5,14.5,0,0,1-2.82-.28,1.59,1.59,0,0,0-.92,1.39,1.21,1.21,0,0,0,.77,1.25,14.94,14.94,0,0,0,3.74.45,49.09,49.09,0,0,1,5.8.53,4.81,4.81,0,0,1,2.68,1.48,4.06,4.06,0,0,1,1.06,2.5c0,.14,0,.28,0,.43a5.13,5.13,0,0,1-2.32,4.24q-2.33,1.74-8.23,1.74c-3.7,0-6.19-.41-7.48-1.21a3.51,3.51,0,0,1-1.93-3q0-2.45,3.12-3.3a3.56,3.56,0,0,1-2.31-3.25c0-1.74,1.22-3.11,3.65-4.08a4.58,4.58,0,0,1-3.23-4.46,4.85,4.85,0,0,1,2.23-4.13A10.45,10.45,0,0,1,141.08,6.79Z" transform="translate(-0.25 -0.25)"/><path class="cls-1" d="M121.2,11q-2.83,0-2.83,4.19V25.41H113V7.17h5v3.09a7,7,0,0,1,2.45-2.84,5.6,5.6,0,0,1,2.62-.63,6.09,6.09,0,0,1,4.2,1.4c1,.93,1.59,2.77,1.59,5.5V25.41h-5.39V15.17a15.57,15.57,0,0,0-.14-2.55A2.1,2.1,0,0,0,121.2,11Z" transform="translate(-0.25 -0.25)"/><rect class="cls-1" x="102.92" y="6.92" width="5.39" height="18.24"/><rect class="cls-1" x="102.92" width="5.39" height="5.38"/><path class="cls-1" d="M100.28,13.82l-5,.28q-.26-3.28-2.85-3.28c-2.14,0-3.2,1.74-3.2,5.24,0,2.32.3,3.8.89,4.42a2.88,2.88,0,0,0,2.18.94q2.49,0,3-3.16l5,.31a7.67,7.67,0,0,1-2.55,5.23,8.43,8.43,0,0,1-5.81,2,8.31,8.31,0,0,1-6.3-2.55,9.54,9.54,0,0,1-2.43-6.84,9.77,9.77,0,0,1,2.49-6.95,8.63,8.63,0,0,1,6.63-2.66,7.92,7.92,0,0,1,5.54,2A7.29,7.29,0,0,1,100.28,13.82Z" transform="translate(-0.25 -0.25)"/><path class="cls-1" d="M72.15,11q-2.84,0-2.83,4.19V25.41H63.93V7.17h5v3.09a7,7,0,0,1,2.45-2.84A5.6,5.6,0,0,1,74,6.79a6.09,6.09,0,0,1,4.2,1.4c1.05.93,1.58,2.77,1.58,5.5V25.41H74.41V15.17a15.57,15.57,0,0,0-.14-2.55A2.1,2.1,0,0,0,72.15,11Z" transform="translate(-0.25 -0.25)"/><path class="cls-1" d="M54.5,22.31a5.29,5.29,0,0,1-5.38,3.48A5.51,5.51,0,0,1,46,25a4.17,4.17,0,0,1-1.58-2.1,11.8,11.8,0,0,1-.48-3.84V7.17h5.22V19.09c0,1.64.67,2.46,2,2.46A2.85,2.85,0,0,0,52.93,21a2.62,2.62,0,0,0,1-1.25,8.83,8.83,0,0,0,.2-2.3V7.17h5.39V25.41h-5Z" transform="translate(-0.25 -0.25)"/><path class="cls-1" d="M38.16,9.52a10.1,10.1,0,0,1,2.34,6.83,9.71,9.71,0,0,1-2.43,6.74,8.26,8.26,0,0,1-6.45,2.7,7.85,7.85,0,0,1-6.23-2.67,10,10,0,0,1-2.34-6.87,10.7,10.7,0,0,1,1.05-4.94A8.92,8.92,0,0,1,27,8a8.15,8.15,0,0,1,4.66-1.24A8.08,8.08,0,0,1,38.16,9.52Zm-3.33,7c0-2.39-.25-4-.75-4.88a2.48,2.48,0,0,0-2.28-1.28,2.58,2.58,0,0,0-2.3,1.18q-.78,1.18-.78,4.71a10.67,10.67,0,0,0,.74,4.64,2.44,2.44,0,0,0,2.31,1.41A2.58,2.58,0,0,0,34,21.05C34.55,20.25,34.83,18.72,34.83,16.47Z" transform="translate(-0.25 -0.25)"/><path class="cls-1" d="M19.36,14.87a6.13,6.13,0,0,1,1.29,3.75,6.42,6.42,0,0,1-2.1,4.78q-2.1,2-6.81,2H.25V.75H11.74a11,11,0,0,1,4.64.76A6.83,6.83,0,0,1,19,3.68a5.75,5.75,0,0,1,1,3.43q0,4.09-4.45,5.47A6.31,6.31,0,0,1,19.36,14.87Zm-4.77,3a2.76,2.76,0,0,0-.9-2.06,4.22,4.22,0,0,0-3-.87H6v5.94h4.44a5,5,0,0,0,3.21-.79A2.76,2.76,0,0,0,14.59,17.83ZM14,7.75a2.61,2.61,0,0,0-.51-1.62,2.21,2.21,0,0,0-1.13-.85A10.59,10.59,0,0,0,10,5.11H6v5.4h4.37c1.61,0,2.61-.32,3-.95A3.28,3.28,0,0,0,14,7.75Z" transform="translate(-0.25 -0.25)"/></g></g></svg>