<svg xmlns="http://www.w3.org/2000/svg" width="254.11" height="34.85" viewBox="0 0 254.11 34.85"><defs><style>.cls-1{fill:#231f20;}.cls-2{fill:#bf529e;}.cls-3{fill:#e57625;}.cls-4{fill:#7cccbe;}</style></defs><title>BBean_logo_fullcolor</title><g id="Layer_2" data-name="Layer 2"><g id="Layer_1-2" data-name="Layer 1"><path class="cls-1" d="M70.88,13.51l1.49,1.31q-1.11,1-1.11,3.6V28.66H67.42a5.49,5.49,0,0,0-1.55-3.79V10.42h5Z" transform="translate(-0.25 -0.25)"/><path class="cls-1" d="M56.21,23.86c-.72.54-1,1.47-.53,3.07A5.31,5.31,0,0,1,51.06,29a5.51,5.51,0,0,1-3.16-.76,4.17,4.17,0,0,1-1.58-2.1,11.8,11.8,0,0,1-.48-3.84V10.42h5.22V22.34c0,1.64.67,2.46,2,2.46a2.85,2.85,0,0,0,1.79-.59,3,3,0,0,0,.62-.61Z" transform="translate(-0.25 -0.25)"/><path class="cls-1" d="M61.43,10.42V23.18c-1.73,0-4-.22-5.22.68l-.72-.26a2,2,0,0,0,.35-.64,8.83,8.83,0,0,0,.2-2.3V10.42Z" transform="translate(-0.25 -0.25)"/><path class="cls-2" d="M55.68,26.93c-.49-1.6-.19-2.53.53-3.07,1.18-.9,3.49-.72,5.22-.68v5.48h-5v-3.1A6.22,6.22,0,0,1,55.68,26.93Z" transform="translate(-0.25 -0.25)"/><path class="cls-2" d="M56.44,28.66h5V23.18h.49a5.46,5.46,0,0,1,4,1.68v3.79h1.55v0a5.5,5.5,0,0,1-5.5,5.5c-3,0-4.13-2.79-5.5-5.5,0,0,0,0,0,0Z" transform="translate(-0.25 -0.25)"/><path class="cls-2" d="M67.42,28.66H65.87V24.87A5.49,5.49,0,0,1,67.42,28.66Z" transform="translate(-0.25 -0.25)"/><path class="cls-3" d="M10.73.69a7,7,0,0,1,5,3.42A18.73,18.73,0,0,0,13.68,4L4.79,2.14C4.9.58,6-.36,10.73.69Z" transform="translate(-0.25 -0.25)"/><path class="cls-4" d="M147.84,10.83a5,5,0,0,1,.91-2.55c.5-.67,1.57-1,3.19-1a7.46,7.46,0,0,1,1.52.15v3.41a7.12,7.12,0,0,0-1.43-.18,1.86,1.86,0,0,0-2.09,1.59l.07.08A13.29,13.29,0,0,1,147,10.55Z" transform="translate(-0.25 -0.25)"/><path class="cls-3" d="M8,8.36v2.57A5.48,5.48,0,0,1,5.23,6.19c0-1.31-.52-2.86-.44-4.05L13.68,4a18.73,18.73,0,0,1,2.09.11h0a4.81,4.81,0,0,1,.45,2.08,5.51,5.51,0,0,1-.91,3,2,2,0,0,0-1-.69,10.59,10.59,0,0,0-2.42-.17Z" transform="translate(-0.25 -0.25)"/><path class="cls-1" d="M175.07,18.12a6.18,6.18,0,0,1,1.28,3.75,6.42,6.42,0,0,1-2.1,4.78q-2.08,2-6.81,2H156l-.51-17.19a5.48,5.48,0,0,0,.47-7.94L167.44,4a11.13,11.13,0,0,1,4.65.76,6.8,6.8,0,0,1,2.56,2.17,5.75,5.75,0,0,1,1,3.43q0,4.1-4.44,5.47A6.33,6.33,0,0,1,175.07,18.12Zm-4.77,3a2.73,2.73,0,0,0-.91-2.06,4.21,4.21,0,0,0-3-.87h-4.69v5.94h4.44a5,5,0,0,0,3.21-.79A2.77,2.77,0,0,0,170.3,21.08ZM169.74,11a2.62,2.62,0,0,0-.52-1.62,2.17,2.17,0,0,0-1.13-.85,10.53,10.53,0,0,0-2.42-.17h-4v5.4h4.38c1.6,0,2.61-.32,3-.95A3.3,3.3,0,0,0,169.74,11Z" transform="translate(-0.25 -0.25)"/><path class="cls-3" d="M8,8.36h4a10.59,10.59,0,0,1,2.42.17,2,2,0,0,1,1,.69A5.49,5.49,0,0,1,8,10.93Z" transform="translate(-0.25 -0.25)"/><path class="cls-4" d="M157.39,7.27a5.49,5.49,0,0,1-1.95,4.2l-.23-8,.7,0A5.45,5.45,0,0,1,157.39,7.27Z" transform="translate(-0.25 -0.25)"/><path class="cls-1" d="M21.3,18.12a6.13,6.13,0,0,1,1.29,3.75,6.42,6.42,0,0,1-2.1,4.78q-2.1,2-6.81,2H2.19L1.86,6.19l-1.61-5L4,2l.82.17c-.08,1.19.44,2.74.44,4.05A5.48,5.48,0,0,0,8,10.93v2.83h4.37c1.61,0,2.61-.32,3-.95A3.28,3.28,0,0,0,16,11a2.61,2.61,0,0,0-.51-1.62,1.07,1.07,0,0,0-.14-.16,5.51,5.51,0,0,0,.91-3,4.81,4.81,0,0,0-.45-2.08,8,8,0,0,1,2.54.65,6.83,6.83,0,0,1,2.57,2.17,5.75,5.75,0,0,1,1,3.43q0,4.1-4.45,5.47A6.31,6.31,0,0,1,21.3,18.12Zm-4.77,3a2.76,2.76,0,0,0-.9-2.06,4.22,4.22,0,0,0-3-.87H8v5.94h4.44a5,5,0,0,0,3.21-.79A2.76,2.76,0,0,0,16.53,21.08Z" transform="translate(-0.25 -0.25)"/><path class="cls-2" d="M56.44,25.56v3.1h0a12,12,0,0,1-.73-1.74A6.22,6.22,0,0,0,56.44,25.56Z" transform="translate(-0.25 -0.25)"/><path class="cls-1" d="M150,12.32a4.9,4.9,0,0,1,1.39,3.39,4.81,4.81,0,0,1-2.16,4.12,10.31,10.31,0,0,1-5.84,1.53l-.06-2.91a2.92,2.92,0,0,0,1.91-.81,2.64,2.64,0,0,0,.82-2,2.71,2.71,0,0,0-.77-1.9,2.86,2.86,0,0,0-2-.81l0-2.91a14.7,14.7,0,0,1,3.56.5A13.29,13.29,0,0,0,150,12.32Z" transform="translate(-0.25 -0.25)"/><path class="cls-4" d="M153.46,7.42a7.46,7.46,0,0,0-1.52-.15c-1.62,0-2.69.34-3.19,1a5,5,0,0,0-.91,2.55l-.89-.28c-2-1.53-3.12-3.28-.56-3.28,3,0,2.46-5.5,5.5-5.5a5.45,5.45,0,0,1,4,1.76l-.7,0,.23,8a5.49,5.49,0,0,1-3.55,1.3,5.31,5.31,0,0,1-1.88-.45l-.07-.08A1.86,1.86,0,0,1,152,10.65a7.12,7.12,0,0,1,1.43.18Z" transform="translate(-0.25 -0.25)"/><path class="cls-1" d="M253.48,19.52a5.44,5.44,0,0,1,.88,3.16,5.67,5.67,0,0,1-2.14,4.59,9.14,9.14,0,0,1-6,1.77q-7,0-8.33-5.4l4.54-.67q.56,2.46,4,2.46a4.84,4.84,0,0,0,2.26-.48,1.43,1.43,0,0,0,.92-1.29q0-1.28-2-1.5a30.53,30.53,0,0,1-4.58-.87A7.59,7.59,0,0,1,240.35,20a4.9,4.9,0,0,1-1.74-4,5.36,5.36,0,0,1,2-4.3A8.53,8.53,0,0,1,246.3,10a8.33,8.33,0,0,1,4.63,1.14,7,7,0,0,1,2.65,3.65l-3.92,1a3.27,3.27,0,0,0-3.56-2.47c-1.8,0-2.71.55-2.71,1.65a1.27,1.27,0,0,0,.5,1,6.59,6.59,0,0,0,2.59.65c1.12.15,2.08.31,2.89.49a11.74,11.74,0,0,1,1.74.47A4.74,4.74,0,0,1,253.48,19.52Z" transform="translate(-0.25 -0.25)"/><path class="cls-1" d="M235.48,16.94V28.66H230.1V18.42a14.2,14.2,0,0,0-.15-2.55,2.05,2.05,0,0,0-.7-1.16,2.11,2.11,0,0,0-1.41-.48,2.54,2.54,0,0,0-1.73.59l-1.49-1.31a7,7,0,0,1,2.46-2.84A5.6,5.6,0,0,1,229.7,10a6.08,6.08,0,0,1,4.19,1.4C235,12.37,235.48,14.21,235.48,16.94Z" transform="translate(-0.25 -0.25)"/><path class="cls-1" d="M224.62,13.51l1.49,1.31q-1.11,1-1.11,3.6V28.66h-5.38V10.42h5Z" transform="translate(-0.25 -0.25)"/><path class="cls-1" d="M215.5,28.66h-5.22a12.8,12.8,0,0,1-.26-2.85,9.73,9.73,0,0,1-1.71,1.92l-1.87-2.05a3,3,0,0,0,2.39-1.18,4.48,4.48,0,0,0,1-2.92V19.92l-.35,0-.31-2.65.66,0v-1a2.35,2.35,0,0,0-2.65-2.66A2.79,2.79,0,0,0,204,16.22l-5-.47A5.67,5.67,0,0,1,202,11.34a11.64,11.64,0,0,1,5.56-1.3,13.72,13.72,0,0,1,3.51.43,5.83,5.83,0,0,1,2.56,1.3,4.51,4.51,0,0,1,1.25,1.84,11.82,11.82,0,0,1,.32,3.37v8.27A12.34,12.34,0,0,0,215.5,28.66Z" transform="translate(-0.25 -0.25)"/><path class="cls-1" d="M209.13,17.31l.31,2.65c-3.53.4-5.29,1.53-5.29,3.37a2.47,2.47,0,0,0,.6,1.66,2.1,2.1,0,0,0,1.69.69l1.87,2.05a4.58,4.58,0,0,1-1,.67,7.15,7.15,0,0,1-3.09.64,6,6,0,0,1-4.14-1.39,4.73,4.73,0,0,1-1.58-3.74,5.82,5.82,0,0,1,.92-3.16,6.05,6.05,0,0,1,3-2.27,11.77,11.77,0,0,1,2-.55A41.89,41.89,0,0,1,209.13,17.31Z" transform="translate(-0.25 -0.25)"/><path class="cls-1" d="M196.19,20.44H184.44c0,.33,0,.61,0,.85a3.91,3.91,0,0,0,1,2.95,3.49,3.49,0,0,0,2.49,1q2.69,0,3.23-2.87l4.88.36q-2,6.33-8.29,6.32A9.18,9.18,0,0,1,183.13,28,8.59,8.59,0,0,1,180,24.76a9.63,9.63,0,0,1-1.24-5,9.9,9.9,0,0,1,2.49-7,8.79,8.79,0,0,1,12.43-.19Q196.19,15,196.19,20.44Zm-11.77-3.12h6.49q-.25-3.77-3.09-3.76Q184.79,13.56,184.42,17.32Z" transform="translate(-0.25 -0.25)"/><path class="cls-1" d="M153.33,28.69c0,.14,0,.28,0,.43A5.13,5.13,0,0,1,151,33.36q-2.33,1.74-8.23,1.74c-3.7,0-6.19-.41-7.48-1.21a3.51,3.51,0,0,1-1.93-3q0-2.45,3.12-3.3a3.56,3.56,0,0,1-2.31-3.25c0-1.52.93-2.76,2.79-3.7l2.65.94a1.4,1.4,0,0,0-.36.94,1.21,1.21,0,0,0,.77,1.25,14.94,14.94,0,0,0,3.74.45,49.09,49.09,0,0,1,5.8.53,4.81,4.81,0,0,1,2.68,1.48A4.06,4.06,0,0,1,153.33,28.69Zm-5,1.42q0-.7-.93-1.08a18,18,0,0,0-5-.38h-1.08a10,10,0,0,1-1.34-.05,3.24,3.24,0,0,0-.62-.07,1.41,1.41,0,0,0-.82.43,1.34,1.34,0,0,0-.49,1.05c0,.82.52,1.33,1.57,1.54a19.83,19.83,0,0,0,3.68.3,12.69,12.69,0,0,0,3.88-.41A1.43,1.43,0,0,0,148.31,30.11Z" transform="translate(-0.25 -0.25)"/><path class="cls-1" d="M143.34,18.45l.06,2.91H143a14.5,14.5,0,0,1-2.82-.28,2.17,2.17,0,0,0-.56.45L137,20.6c.27-.13.56-.26.86-.38a4.58,4.58,0,0,1-3.23-4.46,4.85,4.85,0,0,1,2.23-4.13A10.45,10.45,0,0,1,143,10h.37l0,2.91H143a3,3,0,0,0-2.17.75,2.61,2.61,0,0,0-.78,2q0,2.79,3,2.79Z" transform="translate(-0.25 -0.25)"/><path class="cls-1" d="M130.79,16.94V28.66H125.4V18.42a15.57,15.57,0,0,0-.14-2.55,2.1,2.1,0,0,0-2.12-1.64,2.49,2.49,0,0,0-1.72.59l-1.49-1.31a7,7,0,0,1,2.45-2.84A5.6,5.6,0,0,1,125,10a6.09,6.09,0,0,1,4.2,1.4C130.25,12.37,130.79,14.21,130.79,16.94Z" transform="translate(-0.25 -0.25)"/><path class="cls-1" d="M119.93,13.51l1.49,1.31q-1.11,1-1.11,3.6V28.66h-5.39V10.42h5Z" transform="translate(-0.25 -0.25)"/><polygon class="cls-1" points="110.25 10.18 110.25 28.41 104.86 28.41 104.86 21.57 104.86 16.82 104.86 10.18 110.25 10.18"/><rect class="cls-1" x="104.86" y="3.25" width="5.39" height="5.38"/><path class="cls-1" d="M102.22,17.07l-5,.28q-.26-3.29-2.85-3.28c-2.14,0-3.2,1.74-3.2,5.24,0,2.32.3,3.8.89,4.42a2.88,2.88,0,0,0,2.18.94q2.49,0,3-3.16l5,.31a7.67,7.67,0,0,1-2.55,5.23,8.43,8.43,0,0,1-5.81,2,8.31,8.31,0,0,1-6.3-2.55,9.54,9.54,0,0,1-2.43-6.84,9.77,9.77,0,0,1,2.49-6.95A8.63,8.63,0,0,1,94.25,10a7.92,7.92,0,0,1,5.54,2A7.29,7.29,0,0,1,102.22,17.07Z" transform="translate(-0.25 -0.25)"/><path class="cls-1" d="M81.73,16.94V28.66H76.35V18.42a15.57,15.57,0,0,0-.14-2.55,2.1,2.1,0,0,0-2.12-1.64,2.51,2.51,0,0,0-1.72.59l-1.49-1.31a7,7,0,0,1,2.45-2.84A5.6,5.6,0,0,1,76,10a6.09,6.09,0,0,1,4.2,1.4C81.2,12.37,81.73,14.21,81.73,16.94Z" transform="translate(-0.25 -0.25)"/><path class="cls-1" d="M40.1,12.77a10.1,10.1,0,0,1,2.34,6.83A9.71,9.71,0,0,1,40,26.34,8.26,8.26,0,0,1,33.56,29a7.85,7.85,0,0,1-6.23-2.67A10,10,0,0,1,25,19.5,10.7,10.7,0,0,1,26,14.56a8.92,8.92,0,0,1,2.9-3.28A8.15,8.15,0,0,1,33.6,10,8.08,8.08,0,0,1,40.1,12.77Zm-3.33,7c0-2.39-.25-4-.75-4.88a2.48,2.48,0,0,0-2.28-1.28,2.58,2.58,0,0,0-2.3,1.18q-.78,1.18-.78,4.71a10.67,10.67,0,0,0,.74,4.64,2.44,2.44,0,0,0,2.31,1.41,2.58,2.58,0,0,0,2.21-1.2C36.49,23.5,36.77,22,36.77,19.72Z" transform="translate(-0.25 -0.25)"/></g></g></svg>