<svg xmlns="http://www.w3.org/2000/svg" width="146.82" height="157.27" viewBox="0 0 146.82 157.27"><defs><style>.cls-1{fill:#8d9092;}</style></defs><title>lisa_running</title><g id="Layer_2" data-name="Layer 2"><g id="Layer_1-2" data-name="Layer 1"><g id="LISA"><path class="cls-1" d="M143.8,128.64c-.34-.66-1.4-.94-2.13-1.39-.42.92-1.23,1.86-1.18,2.74.08,1.23.86,2.41,1.23,3.64.69,2.24,1.3,4.5,2.16,7.52-5.34-.45-12.3-4.65-16.73-5.63-18.56-4.11-37.05-8.57-55.58-12.83-1.73-.4-2.13-1.25-2.07-2.84.16-4.36.34-8.72.29-13.08-.1-7.49-.11-15-.67-22.46-.29-3.85-1.68-7.62-2.59-11.51l1.28-.52C78.44,67.9,86,60.77,89.53,49.46a89.23,89.23,0,0,0,3.61-29.64c-.09-2.77.58-4,3.33-4.94,5.61-1.87,9.92-5.34,11.31-11.53.3-1.31.75-2.7-1-3.22s-2.32.79-2.68,2.26A11.75,11.75,0,0,1,97,10.7a45.43,45.43,0,0,1-5.46,2,2.63,2.63,0,0,0-2.13,3c.1,3,.28,6,.1,9-.35,5.77-.92,11.53-1.42,17.58-.68-.41-.87-.45-.94-.57-.31-.47-.58-1-.87-1.45C82.87,34.54,78,31,71.37,30.16,59.91,28.66,50.54,33,42.62,40.94c-4,4-6.4,9.05-6.2,14.75.12,3.57,1.37,7.11,2.12,10.67C37.35,65.7,35.77,65,34.32,64c-10.16-6.52-11-22.75-14.75-33.85-.86-2.54-1.76-3.87-4.57-2.8a3.9,3.9,0,0,1-1.9-.12c-4.49-.77-7.53-3.49-9.66-7.34C2.79,18.76,2.1,17.75.65,18.42a2.39,2.39,0,0,0-.65.45,5.6,5.6,0,0,1,.2,3c2.83,5.13,7,8.52,13,9,2.16.17,2.94,1,3.63,2.9,3.81,10.15,4.48,25.59,13.39,32.08,4.48,3.26,9.6,5,14.87,6.7A34.31,34.31,0,0,0,61.2,74.32a2.66,2.66,0,0,1,2,1.6c1.13,5.76,2.68,11.53,2.91,17.35.37,8.94-.14,17.92-.41,26.87a24.46,24.46,0,0,1-1,5.86,44.37,44.37,0,0,1-2.25,5.87c-2.71,6.11-5.29,12.29-8.32,18.24-1.81,3.58-2.56,3.54-6.09,1.74-8-4.08-16.79-5.15-23.14-11.43a3.4,3.4,0,0,0-2.65-.9c-.48.1-1,1.59-.94,2.39.42,4.43-.74,8-4.92,10.15a2,2,0,0,0-.74,1.76,2.58,2.58,0,0,0,1.65,1.43,3.8,3.8,0,0,0,2.23-.66c3.26-1.82,4.66-4.93,5.44-8.31.25,0,.36-.09.4-.05.5.39,1,.79,1.49,1.21,6.36,5.55,15.07,5.95,22.84,9.36,1.65.73,3,.7,4.09-.72,2.1-2.74,4.62-5.31,6-8.38,3-6.34,5.37-12.94,7.87-19.48.71-1.86,1.48-2.34,3.55-1.83q26.3,6.44,52.66,12.58c5.93,1.38,14.26,6.09,20.34,5.32,1.75-.22,2.45-1.08,2.55-2.85A24.61,24.61,0,0,0,143.8,128.64ZM54.67,70.87a52.49,52.49,0,0,1-6.28-1.6c-7.13-2.77-10.1-11.36-7.33-18.08,4.35-10.56,12.16-16.4,23.34-17.34a24.77,24.77,0,0,1,11,1.68c9.39,3.84,12,13.55,6.39,21.94C76.79,65,63.81,71.28,54.67,70.87Z"/><path class="cls-1" d="M57,67.69a56.84,56.84,0,0,1-5.1-2.52c-.43-.25-.26-1.5-.38-2.29a4.19,4.19,0,0,1,2.3,1c2.66,2.25,5.51.84,8.45-.06a31.21,31.21,0,0,0,12.08-7.3c.58-.53,1.69-.5,2.56-.73-.07.91.22,2.16-.26,2.67A29,29,0,0,1,57,67.69Z"/><path class="cls-1" d="M80.55,33.77s1.33-8.69-3.66-9.52S53,21.58,54.18,21.92s2.33,2.33,1.94,4.33-8.41-1.33-9.23.33-5.32,5.34-5.32,5.34-2.38,5-2.61,6-5.72,3.66-5.72,3.66c-1.34,4.17,3,8.37,0,8.52s-5.84,1.61-4.34,3.47a6.85,6.85,0,0,0,4,2.18l3.93,3.35S44.11,40.25,49,38.25s8.72-5,15.39-4.4a75.59,75.59,0,0,1,11,1.68Z"/><ellipse class="cls-1" cx="71.85" cy="49.71" rx="1.65" ry="3.08"/><ellipse class="cls-1" cx="53.85" cy="54.71" rx="1.65" ry="3.08"/></g></g></g></svg>