<?xml version="1.0" encoding="utf-8"?>
<!-- Generator: Adobe Illustrator 22.1.0, SVG Export Plug-In . SVG Version: 6.00 Build 0)  -->
<svg version="1.1" id="Layer_1" xmlns="http://www.w3.org/2000/svg" xmlns:xlink="http://www.w3.org/1999/xlink" x="0px" y="0px"
	 viewBox="0 0 254.1 34.8" style="enable-background:new 0 0 254.1 34.8;" xml:space="preserve">
<style type="text/css">
	.st0{fill:#252121;}
	.st1{fill:#252122;}
	.st2{fill:#E37627;}
	.st3{fill:#BE539E;}
	.st4{fill:#7CCABD;}
</style>
<title>BBean_logo_fullcolor</title>
<g>
	<path class="st0" d="M15.8,4.1c4,0.3,6.5,3.3,6,7.2c-0.3,2.4-1.9,3.6-4,4.4c0.2,0.1,0.4,0.2,0.5,0.3c2.9,1.1,4.3,3.3,4.2,6.2
		c-0.1,2.8-2,5.1-4.8,5.9c-1.2,0.4-2.5,0.5-3.8,0.5c-3.6,0-7.2,0-10.8,0c-0.9,0-1.1-0.3-1.1-1.1C2.1,21.1,1.9,14.6,1.9,8.1
		c0-2.3-0.8-4.3-1.7-6.4c0-0.2,0-0.3,0-0.5c1.5,0.1,3,0.7,4.5,0.8c0.2,1.1,0.5,2.1,0.5,3.2c-0.1,2.5,0.9,4.4,2.9,5.9
		c0,0.7,0,1.3-0.1,2c0,0.4,0,0.6,0.5,0.6c1.7-0.1,3.5,0.2,5.2-0.1c2-0.4,2.8-2.4,1.6-4.2C16.1,7.7,16.5,6,15.8,4.1z M11.1,24
		c0.9,0,1.8,0.1,2.6,0c1.7-0.2,2.8-1.4,2.8-2.9c0-1.5-1.1-2.7-2.8-2.9c-0.9-0.1-1.9,0-2.9,0C8,18.2,8,18.3,8,21c0,1-0.4,2.3,0.2,2.9
		C8.8,24.5,10.1,24,11.1,24z"/>
	<path class="st1" d="M150.5,12.7c2.2,3.9,0.3,7.4-4.4,8.4c-1.7,0.3-3.3,0.4-5,0.1c-1-0.2-1.6,0.2-1.8,1.1c-0.2,0.9,0.4,1.3,1.3,1.5
		c2.5,0.5,5.1,0.3,7.6,0.7c0.7,0.1,1.4,0.1,2,0.3c1.6,0.5,2.8,1.6,3.1,3.3c0.3,1.9-0.3,3.5-1.7,4.7c-1.3,1.2-3,1.6-4.7,1.9
		c-0.2,0-0.6-0.1-0.7,0.2c-2.6,0-5.1,0-7.7,0c-0.4-0.4-0.9-0.3-1.4-0.5c-1.1-0.3-2.1-0.7-2.9-1.6c-1.4-1.6-1-3.9,0.9-5
		c0.3-0.2,0.7-0.3,1.1-0.5c-3.1-2.5-2.7-5,1.3-7.3c0-0.3-0.3-0.3-0.5-0.5c-3.1-2-3.1-6.3,0-8.3c2.9-1.9,6.1-1.9,9.3-1.2
		C147.7,10.9,149.1,11.8,150.5,12.7z M142.2,28.6c-0.8,0-1.5,0.1-2.3,0c-1-0.1-1.7,0.3-1.8,1.3c-0.1,1,0.6,1.5,1.4,1.6
		c2.5,0.4,4.9,0.5,7.4,0c0.8-0.2,1.4-0.6,1.4-1.4c0-0.8-0.7-1-1.4-1.1C145.3,28.7,143.8,28.5,142.2,28.6z M143,13
		c-1.8,0-2.9,1-2.9,2.6c0,1.8,1,2.8,2.9,2.9c1.7,0,3-1.1,3.1-2.7C146.1,14.1,144.9,13,143,13z"/>
	<path class="st1" d="M254.4,24.3c-1,2.2-2.6,3.8-5,4.4c-2.6,0.7-5.2,0.5-7.8-0.4c-2.1-0.8-3.3-2.4-3.8-4.7c1.3-0.2,2.6-0.3,3.8-0.6
		c0.6-0.1,0.8,0.1,1.1,0.6c1,1.8,4.9,2.4,6.4,1c0.8-0.8,0.5-1.9-0.7-2.2c-1.3-0.3-2.7-0.5-4-0.7c-0.9-0.2-1.9-0.4-2.7-0.8
		c-3.3-1.6-4.2-5.7-1.8-8.5c2.6-3,9.2-3.3,12-0.5c0.3,0.3,0.5,0.6,0.8,0.9c1.2,1.8,1.2,1.9-0.8,2.5c-0.2,0.1-0.5,0.1-0.7,0.2
		c-0.9,0.4-1.5,0.3-2-0.7c-0.9-1.5-3.4-1.9-4.9-1c-0.5,0.3-0.8,0.7-0.7,1.3c0,0.5,0.4,0.9,0.9,1.1c1.2,0.5,2.6,0.4,3.9,0.7
		c1,0.2,2,0.4,2.9,0.7c1.9,0.6,2.7,2.2,3.4,3.9C254.4,22.4,254.4,23.3,254.4,24.3z"/>
	<path class="st2" d="M8.1,11.1C6.1,9.6,5.1,7.7,5.2,5.2c0-1.1-0.3-2.1-0.5-3.2c0-1.3,1.1-1.5,2-2c0.5,0,1,0,1.4,0
		C8.7,0.5,9.4,0.4,10,0.5c2.5,0.4,4.5,1.5,5.8,3.7c0.6,1.8,0.3,3.6-0.5,5.3C13.3,11.8,11.3,12.3,8.1,11.1z"/>
	<path class="st0" d="M156.3,3.7c4.6-0.1,9.1,0,13.6,0.5c4.2,0.4,6.6,4,5.6,7.8c-0.5,2-2,3-3.9,3.8c0.2,0.1,0.3,0.2,0.4,0.2
		c3.1,1.2,4.6,3.5,4.4,6.5c-0.2,2.9-2.5,5.2-5.6,5.9c-1.6,0.3-3.3,0.3-4.9,0.3c-2.9,0-5.8,0-8.8,0c-0.8,0-1.1-0.1-1.2-1.1
		c-0.1-5.3-0.3-10.5-0.5-15.8c0.1-0.1,0.1-0.3,0.2-0.4C157.9,9,157.9,6.4,156.3,3.7z M164.7,24c1,0,2.1,0.2,3.1-0.1
		c1.7-0.4,2.5-1.5,2.4-2.9c-0.1-1.4-1.1-2.5-2.7-2.7c-1-0.1-2,0-3,0c-2.8,0-2.9,0-2.8,2.8c0,1-0.5,2.3,0.2,2.9
		C162.5,24.4,163.8,24,164.7,24z M164.8,8.5C164.8,8.4,164.8,8.4,164.8,8.5c-0.8,0-1.6,0-2.4,0c-0.5,0-0.7,0.1-0.7,0.6
		c0,1.4,0,2.7,0,4.1c0,0.3,0,0.7,0.5,0.6c1.9-0.1,3.8,0.2,5.7-0.3c1.1-0.3,1.9-1.5,1.8-2.8c-0.1-1.2-1-2.1-2.2-2.2
		C166.6,8.4,165.7,8.5,164.8,8.5z"/>
	<path class="st1" d="M215.6,28.6c-1.7,0-3.3,0-4.9,0c-0.5,0-0.5-0.3-0.6-0.6c-0.1-0.6-0.1-1.2-0.2-1.9c-0.4,0.4-0.7,0.7-1,1.1
		c-2,2-5.5,2.5-8,1.1c-1.9-1.1-2.6-2.8-2.4-5c0.2-2.3,1.5-3.9,3.6-4.8c1.9-0.8,3.9-0.9,5.8-1.2c0.7-0.1,1.8,0.5,1.8-1
		c0-1.5-0.7-2.5-2-2.7c-1.8-0.3-3,0.3-3.7,2c-0.2,0.4-0.4,0.5-0.8,0.5c-1.3-0.1-2.5-0.2-3.8-0.3c-0.6,0-0.6-0.3-0.5-0.8
		c0.4-1.6,1.3-2.9,2.8-3.7c3.3-1.7,6.7-1.8,10.1-0.6c2.5,0.8,3.2,2.9,3.2,5.3c0,3.2,0,6.4,0,9.6C215.2,26.6,215.2,27.6,215.6,28.6z
		 M209.8,21.3c-0.3-0.3,0.4-1.3-0.4-1.2c-1.6,0.1-3.3,0.4-4.5,1.6c-0.8,0.8-0.9,1.8-0.4,2.9c0.5,1,1.4,1.3,2.5,1.1
		C208.7,25.2,209.7,23.6,209.8,21.3z"/>
	<path class="st0" d="M120,13.1c2.5-3.2,5.4-4,8.3-2.4c1.4,0.8,2,2,2.3,3.4c0.4,2.1,0.2,4.1,0.2,6.2c0,2.5,0,5,0,7.4
		c0,0.7-0.2,0.9-0.9,0.9c-1.2-0.1-2.5-0.1-3.7,0c-0.7,0-1-0.2-0.9-0.9c0-3.4,0-6.9,0-10.3c0-2.1-0.7-3.1-2.1-3.2
		c-1.6-0.1-2.7,0.9-2.8,3c-0.1,3.4-0.1,6.7-0.1,10.1c0,1.2-0.3,1.5-1.5,1.4c-1.1-0.1-2.2-0.1-3.2,0c-0.7,0-0.8-0.2-0.8-0.8
		c0-5.6,0-11.1,0-16.7c0-0.6,0.1-0.8,0.8-0.8c1,0.1,2.1,0.1,3.1,0c1-0.1,1.3,0.3,1.2,1.2C119.9,12,120,12.4,120,13.1z"/>
	<path class="st0" d="M196,22.7c-1.2,4.5-4.6,6.8-9.4,6.4c-4.1-0.4-7.4-3.7-7.8-7.8c-0.2-2-0.1-4.1,0.8-6c1.7-3.7,5.4-5.7,9.5-5.1
		c3.8,0.6,6.5,3.6,7,7.7c0.3,2.6,0.3,2.6-2.3,2.6c-2.8,0-5.7,0-8.5,0c-0.7,0-0.9,0.2-0.9,0.9c0,2.7,2.1,4.5,4.5,3.8
		c1.1-0.3,1.7-1.1,2-2.1c0.2-0.6,0.4-0.7,0.9-0.6C193.2,22.5,194.6,22.6,196,22.7z M187.6,17.3c0.8,0,1.5-0.1,2.3,0
		c0.9,0.1,1-0.4,0.8-1.1c-0.4-1.8-1.4-2.7-3-2.6c-1.7,0-2.9,1.1-3.2,2.8c-0.1,0.6,0,0.9,0.7,0.8C186,17.2,186.9,17.3,187.6,17.3z"/>
	<path class="st0" d="M224.6,13.2c1.1-1.6,2.3-2.8,4.1-3.2c3.6-0.6,6.4,1.3,6.6,4.9c0.2,4.3,0.1,8.7,0.1,13.1c0,0.6-0.3,0.6-0.7,0.6
		c-1.2,0-2.4-0.1-3.6,0c-0.9,0.1-1.2-0.2-1.1-1.1c0.1-3.2,0-6.4,0-9.6c0-0.5-0.1-1-0.1-1.6c0-1.2-0.6-1.9-1.7-2.1
		c-1.1-0.2-2.1,0.3-2.7,1.4c-0.5,1-0.5,2.2-0.5,3.3c0,2.9,0,5.8,0,8.8c0,0.8-0.2,1-1,1c-1.2-0.1-2.4,0-3.6,0c-0.6,0-0.8-0.1-0.8-0.8
		c0-5.6,0-11.2,0-16.8c0-0.6,0.2-0.8,0.7-0.7c1.1,0,2.2,0.1,3.4,0c0.8-0.1,1.1,0.2,1,1C224.6,11.9,224.6,12.4,224.6,13.2z"/>
	<path class="st1" d="M25,19.4c0-2.8,0.7-5.4,2.8-7.4c5-4.5,13-1.8,14.4,4.9c0.8,3.8,0.2,7.4-2.9,10.1c-2.7,2.4-6,2.7-9.2,1.3
		c-3.4-1.4-4.7-4.3-5.1-7.8C24.9,20.2,25,19.8,25,19.4z M30.7,19.3c0,1.3,0,2.6,0.4,3.8c0.5,1.7,1.3,2.4,2.6,2.3
		c1.3,0,2.4-0.9,2.7-2.4c0.5-2.4,0.5-4.8,0-7.1c-0.4-1.6-1.4-2.4-2.8-2.3c-1.4,0.1-2.3,1-2.6,2.5C30.7,17.2,30.7,18.3,30.7,19.3z"/>
	<path class="st0" d="M65.8,24.5c0-4.4,0.1-8.7,0-13.1c0-0.9,0.2-1.2,1.1-1.1c1,0.1,2,0.1,3,0c0.9-0.1,1.1,0.2,1,1.1
		c-0.1,0.5,0,0.9,0,1.7c1.2-1.7,2.4-2.8,4.2-3.1c3.6-0.6,6.2,1.3,6.5,4.9c0.3,4.3,0.1,8.7,0.1,13.1c0,0.6-0.3,0.7-0.8,0.7
		c-1.2,0-2.5-0.1-3.7,0c-0.8,0-0.9-0.2-0.9-1c0-3.2,0-6.4,0-9.6c0-0.6,0-1.2-0.1-1.8c-0.1-1.1-0.6-1.8-1.7-2
		c-1.1-0.2-2.1,0.2-2.6,1.2c-0.5,0.9-0.6,1.8-0.6,2.8c0,3.1,0,6.2,0,9.2c0,1-0.3,1.2-1.2,1.1c-0.9-0.1-1.8,0-2.6,0
		C67.4,27.1,66.7,25.8,65.8,24.5z"/>
	<path class="st1" d="M99.6,17.3c-0.2,0-0.3,0-0.5,0c-1.2,0.2-2.1,0.1-2.3-1.4c-0.1-1.1-1.1-1.7-2.3-1.8c-1.1,0-2.1,0.3-2.6,1.4
		c-1.1,2.5-1.1,5.1-0.2,7.7c0.4,1.1,1.4,1.5,2.5,1.4c1.3,0,2.2-0.7,2.5-1.9c0.3-1.2,0.8-1.4,1.9-1.2c0.8,0.1,1.7,0.1,2.5,0.1
		c1,0,1.1,0.4,0.9,1.2c-0.8,3.5-3.8,6-7.5,6.2c-5.8,0.3-9.7-3.7-9.6-9.7c0.2-7.9,7.1-11,12.5-8.8c2.5,1,4,2.9,4.6,5.6
		c0.2,0.7,0,1-0.8,1C100.8,17.1,100.2,17.2,99.6,17.3C99.6,17.2,99.6,17.3,99.6,17.3z"/>
	<path class="st1" d="M55.7,27.1c-1.7,1.8-3.8,2.3-6.1,1.8c-1.9-0.4-3-1.5-3.4-3.4c-0.3-1.2-0.3-2.5-0.3-3.7c0-3.5,0-7,0-10.6
		c0-0.7,0.2-1,0.9-0.9c1.2,0.1,2.3,0.1,3.5,0c0.8,0,0.9,0.3,0.9,1c0,3.6,0,7.1,0,10.7c0,1.9,0.6,2.7,1.9,2.8
		c1.5,0.1,2.9-1.2,2.9-2.8c0.1-3.5,0.1-7,0-10.6c0-0.8,0.2-1.1,1.1-1.1c1.2,0.1,2.3,0.1,3.5,0c0.8,0,1,0.2,1,1c0,3.9,0,7.8,0,11.8
		c-1,0-2,0-3,0.1C55.7,23.4,55,24.4,55.7,27.1z"/>
	<path class="st3" d="M55.7,27.1c-0.7-2.7,0.1-3.7,2.8-4c1-0.1,2,0,3-0.1c1.6,0,3,0.5,4.3,1.4c0.9,1.2,1.7,2.5,1.7,4.1
		c-0.1,3.1-2.4,5.4-5.3,5.5c-1.4,0-2.6-0.5-3.4-1.6C57.4,30.9,56.6,29,55.7,27.1z"/>
	<path class="st1" d="M105.1,19.5c0-2.7,0-5.4,0-8c0-0.9,0.3-1.1,1.1-1.1c1.2,0.1,2.4,0,3.6,0c0.6,0,0.8,0.2,0.8,0.7
		c0,5.6,0,11.2,0,16.8c0,0.7-0.2,0.8-0.8,0.8c-1.3,0-2.6,0-3.8,0c-0.6,0-0.8-0.2-0.8-0.8C105.1,25.1,105.1,22.3,105.1,19.5z"/>
	<path class="st4" d="M156.3,3.7c1.7,2.7,1.7,5.3-0.6,7.7c-0.1,0.1-0.1,0.3-0.2,0.4c-1.6,0.8-3.2,1.2-5,1c-1.4-0.9-2.7-1.8-4.3-2.4
		c-0.1-0.7-0.8-1-1.1-1.6c-0.5-0.9-0.2-1.5,0.7-1.5c1.6,0,2.4-0.9,2.9-2.2c0.2-0.5,0.4-0.9,0.7-1.4c1-1.9,2.1-2.4,4.2-1.7
		C154.7,2.4,155.4,3.1,156.3,3.7z"/>
	<path class="st1" d="M107.8,3.4c2.7,0,2.7,0,2.7,2.6c0,2.8,0,2.8-2.8,2.8c-2.7,0-2.7,0-2.7-2.6C105.1,3.4,105.1,3.4,107.8,3.4z"/>
</g>
</svg>
