<svg xmlns="http://www.w3.org/2000/svg" xmlns:xlink="http://www.w3.org/1999/xlink" viewBox="0 0 26.7 5.07"><defs><linearGradient id="a" x1="0.71" y1="2.78" x2="2.27" y2="2.78" gradientUnits="userSpaceOnUse"><stop offset="0" stop-color="#c1d5af"/><stop offset="0.5" stop-color="#aac691"/><stop offset="1" stop-color="#9ec08a"/></linearGradient><linearGradient id="b" x1="2.6" y1="3.32" x2="3.95" y2="3.32" xlink:href="#a"/><linearGradient id="c" x1="4.13" y1="3.34" x2="5.76" y2="3.34" xlink:href="#a"/><linearGradient id="d" x1="5.87" y1="3.31" x2="7.49" y2="3.31" xlink:href="#a"/><linearGradient id="e" x1="7.67" y1="3.32" x2="9.03" y2="3.32" xlink:href="#a"/><linearGradient id="f" x1="9.24" y1="2.78" x2="10.01" y2="2.78" xlink:href="#a"/><linearGradient id="g" x1="10.13" y1="3.31" x2="11.76" y2="3.31" xlink:href="#a"/><linearGradient id="h" x1="11.95" y1="3.74" x2="13.42" y2="3.74" xlink:href="#a"/><linearGradient id="i" x1="13.56" y1="2.78" x2="15.12" y2="2.78" xlink:href="#a"/><linearGradient id="j" x1="15.45" y1="3.32" x2="16.81" y2="3.32" xlink:href="#a"/><linearGradient id="k" x1="17.09" y1="3.32" x2="18.54" y2="3.32" xlink:href="#a"/><linearGradient id="l" x1="18.63" y1="3.31" x2="20.25" y2="3.31" xlink:href="#a"/><linearGradient id="m" x1="20.41" y1="3.32" x2="21.72" y2="3.32" xlink:href="#a"/><linearGradient id="n" x1="21.99" y1="4.52" x2="22.45" y2="4.52" xlink:href="#a"/><linearGradient id="o" x1="22.73" y1="3.32" x2="24.18" y2="3.32" xlink:href="#a"/><linearGradient id="p" x1="24.26" y1="3.73" x2="25.73" y2="3.73" xlink:href="#a"/><linearGradient id="q" x1="25.94" y1="3.73" x2="27.41" y2="3.73" xlink:href="#a"/></defs><title>bouncing_beans_logo1</title><path d="M2.27,4.27a.54.54,0,0,1-.21.43.76.76,0,0,1-.51.18H.71V4.77H.86v-4H.71V.68h.84a.76.76,0,0,1,.51.18.54.54,0,0,1,.21.43V2.1a.57.57,0,0,1-.42.56.59.59,0,0,1,.42.56Zm-.48-1.9V1A.26.26,0,0,0,1.72.86.23.23,0,0,0,1.55.79H1.34V2.61h.21a.28.28,0,0,0,.17-.07A.28.28,0,0,0,1.79,2.37Zm0,2.16V3a.24.24,0,0,0-.07-.17.23.23,0,0,0-.17-.07H1.34v2h.21a.23.23,0,0,0,.17-.07A.24.24,0,0,0,1.79,4.53Z" transform="translate(-0.71 -0.68)" fill="url(#a)"/><path d="M4,4.3a.56.56,0,0,1-.19.43.68.68,0,0,1-.48.18.69.69,0,0,1-.49-.18A.56.56,0,0,1,2.6,4.3v-2a.56.56,0,0,1,.19-.43.69.69,0,0,1,.49-.18.68.68,0,0,1,.48.18A.56.56,0,0,1,4,2.34Zm-.46.26V2.08q0-.24-.21-.24t-.21.24V4.56q0,.24.21.24T3.49,4.56Z" transform="translate(-0.71 -0.68)" fill="url(#b)"/><path d="M5.76,4.88H5.14V4.8a.54.54,0,0,1-.35.11c-.34,0-.51-.18-.51-.55V1.87H4.13V1.76h.62v2.8c0,.15.06.23.18.23a.29.29,0,0,0,.21-.1V1.87H5V1.76h.62v3h.15Z" transform="translate(-0.71 -0.68)" fill="url(#c)"/><path d="M7.49,4.88H6.88V2.08c0-.15-.06-.23-.18-.23a.32.32,0,0,0-.21.1V4.77h.15v.11H5.87V4.77H6V1.87H5.87V1.76h.62v.09a.47.47,0,0,1,.34-.12c.34,0,.51.19.51.55V4.77h.15Z" transform="translate(-0.71 -0.68)" fill="url(#d)"/><path d="M9,4.3a.56.56,0,0,1-.19.43.69.69,0,0,1-.49.18.68.68,0,0,1-.48-.18.57.57,0,0,1-.2-.43v-2a.57.57,0,0,1,.2-.43.68.68,0,0,1,.48-.18.69.69,0,0,1,.49.18A.56.56,0,0,1,9,2.34v.38H8.56V2.08q0-.24-.21-.24t-.21.24V4.56q0,.24.21.24t.21-.24V3.93H9Z" transform="translate(-0.71 -0.68)" fill="url(#e)"/><path d="M10,4.88H9.24V4.77h.15V1.87H9.24V1.76h.62v3H10ZM9.86,1.4H9.39V.68h.47Z" transform="translate(-0.71 -0.68)" fill="url(#f)"/><path d="M11.76,4.88h-.62V2.08c0-.15-.06-.23-.17-.23a.34.34,0,0,0-.22.1V4.77h.15v.11h-.77V4.77h.16V1.87h-.16V1.76h.62v.09a.51.51,0,0,1,.35-.12c.34,0,.51.19.51.55V4.77h.15Z" transform="translate(-0.71 -0.68)" fill="url(#g)"/><path d="M13.42,1.87h-.15V5.14a.57.57,0,0,1-.18.43.64.64,0,0,1-.47.18.67.67,0,0,1-.47-.18.53.53,0,0,1-.2-.43V5h.47V5.4c0,.16.06.24.2.24s.18-.08.18-.24V4.74a.51.51,0,0,1-.34.11c-.34,0-.51-.18-.51-.55v-2c0-.36.17-.55.51-.55a.47.47,0,0,1,.34.12V1.76h.62ZM12.8,4.63V2a.32.32,0,0,0-.21-.1c-.12,0-.17.08-.17.23V4.5c0,.16.05.23.17.23A.28.28,0,0,0,12.8,4.63Z" transform="translate(-0.71 -0.68)" fill="url(#h)"/><path d="M15.12,4.27a.54.54,0,0,1-.21.43.76.76,0,0,1-.51.18h-.84V4.77h.15v-4h-.15V.68h.84a.76.76,0,0,1,.51.18.54.54,0,0,1,.21.43V2.1a.57.57,0,0,1-.42.56.59.59,0,0,1,.42.56Zm-.48-1.9V1a.22.22,0,0,0-.07-.17A.23.23,0,0,0,14.4.79h-.21V2.61h.21a.28.28,0,0,0,.17-.07A.23.23,0,0,0,14.64,2.37Zm0,2.16V3a.21.21,0,0,0-.07-.17.23.23,0,0,0-.17-.07h-.21v2h.21a.23.23,0,0,0,.17-.07A.21.21,0,0,0,14.64,4.53Z" transform="translate(-0.71 -0.68)" fill="url(#i)"/><path d="M16.81,4.3a.59.59,0,0,1-.19.43.76.76,0,0,1-1,0,.56.56,0,0,1-.19-.43v-2a.56.56,0,0,1,.19-.43.76.76,0,0,1,1,0,.59.59,0,0,1,.19.43v1h-.89V4.56q0,.24.21.24t.21-.24V3.93h.47Zm-.47-1V2.08q0-.24-.21-.24t-.21.24V3.26Z" transform="translate(-0.71 -0.68)" fill="url(#j)"/><path d="M18.54,4.88h-.62V4.8a.52.52,0,0,1-.33.11c-.34,0-.5-.18-.5-.55V3.67c0-.39.23-.58.69-.58h.14v-1c0-.16-.06-.24-.17-.24s-.18.08-.18.24v.64h-.46V2.34a.57.57,0,0,1,.17-.44.66.66,0,0,1,.47-.17.68.68,0,0,1,.47.17.6.6,0,0,1,.17.44V4.77h.15Zm-.62-.19V3.2h-.13a.2.2,0,0,0-.23.23V4.56c0,.15.05.23.16.23A.28.28,0,0,0,17.92,4.69Z" transform="translate(-0.71 -0.68)" fill="url(#k)"/><path d="M20.25,4.88h-.61V2.08c0-.15-.06-.23-.18-.23a.34.34,0,0,0-.21.1V4.77h.15v.11h-.77V4.77h.15V1.87h-.15V1.76h.62v.09a.48.48,0,0,1,.35-.12c.34,0,.51.19.51.55V4.77h.14Z" transform="translate(-0.71 -0.68)" fill="url(#l)"/><path d="M21.72,4.3a.6.6,0,0,1-.17.43.66.66,0,0,1-.48.18.64.64,0,0,1-.47-.18.56.56,0,0,1-.19-.43V3.93h.47v.63c0,.16.07.24.19.24s.18-.08.18-.24V4.1a.61.61,0,0,0-.16-.45l-.49-.49a.67.67,0,0,1-.19-.53V2.34a.57.57,0,0,1,.18-.43.7.7,0,0,1,.94,0,.57.57,0,0,1,.18.43v.38h-.47V2.08q0-.24-.18-.24t-.18.24v.41a.61.61,0,0,0,.16.45l.5.49a.72.72,0,0,1,.18.53Z" transform="translate(-0.71 -0.68)" fill="url(#m)"/><path d="M22.45,4.88H22V4.16h.46Z" transform="translate(-0.71 -0.68)" fill="url(#n)"/><path d="M24.18,4.88h-.62V4.8a.52.52,0,0,1-.33.11c-.34,0-.5-.18-.5-.55V3.67c0-.39.23-.58.69-.58h.14v-1c0-.16-.06-.24-.17-.24s-.18.08-.18.24v.64h-.46V2.34a.57.57,0,0,1,.17-.44.66.66,0,0,1,.47-.17.68.68,0,0,1,.47.17.6.6,0,0,1,.17.44V4.77h.15Zm-.62-.19V3.2h-.14c-.15,0-.22.08-.22.23V4.56c0,.15.05.23.16.23A.28.28,0,0,0,23.56,4.69Z" transform="translate(-0.71 -0.68)" fill="url(#o)"/><path d="M25.73,4.36c0,.37-.17.55-.51.55a.56.56,0,0,1-.35-.11v.81H25v.11h-.77V5.61h.15V1.87h-.15V1.76h.61v.09a.51.51,0,0,1,.35-.12c.34,0,.51.19.51.55Zm-.47.2V2.08c0-.15-.05-.23-.17-.23a.36.36,0,0,0-.22.1V4.69a.32.32,0,0,0,.22.1C25.21,4.79,25.26,4.71,25.26,4.56Z" transform="translate(-0.71 -0.68)" fill="url(#p)"/><path d="M27.41,4.36c0,.37-.17.55-.51.55a.56.56,0,0,1-.35-.11v.81h.16v.11h-.77V5.61h.15V1.87h-.15V1.76h.61v.09a.51.51,0,0,1,.35-.12c.34,0,.51.19.51.55Zm-.47.2V2.08c0-.15-.05-.23-.17-.23a.34.34,0,0,0-.22.1V4.69a.3.3,0,0,0,.22.1C26.89,4.79,26.94,4.71,26.94,4.56Z" transform="translate(-0.71 -0.68)" fill="url(#q)"/></svg>