<?xml version="1.0" encoding="utf-8"?>
<!-- Generator: Adobe Illustrator 23.0.1, SVG Export Plug-In . SVG Version: 6.00 Build 0)  -->
<svg version="1.1" id="Layer_1" xmlns="http://www.w3.org/2000/svg" xmlns:xlink="http://www.w3.org/1999/xlink" x="0px" y="0px"
	 viewBox="0 0 28 7" style="enable-background:new 0 0 28 7;" xml:space="preserve">
<g>
	<path d="M2.3,4.3c0,0.2-0.1,0.3-0.2,0.4S1.7,4.9,1.5,4.9H0.7V4.8h0.1v-4H0.7V0.7h0.8c0.2,0,0.4,0.1,0.5,0.2C2.1,1,2.2,1.2,2.2,1.3
		v0.8c0,0.3-0.1,0.4-0.4,0.6C2.1,2.8,2.3,3,2.3,3.2V4.3z M1.8,2.4V1c0-0.1,0-0.1-0.1-0.2s-0.1,0-0.2,0H1.3v1.8h0.2
		C1.6,2.6,1.6,2.6,1.8,2.4C1.8,2.4,1.8,2.4,1.8,2.4z M1.8,4.5V3c0-0.1,0-0.1-0.1-0.2S1.6,2.7,1.5,2.7H1.3v2.1h0.2
		c0.1,0,0.1,0,0.2-0.1S1.8,4.6,1.8,4.5z"/>
	<path d="M4,4.3c0,0.2-0.1,0.3-0.2,0.4C3.6,4.9,3.5,4.9,3.3,4.9s-0.4,0-0.5-0.2S2.6,4.5,2.6,4.3v-2c0-0.2,0.1-0.3,0.2-0.4
		s0.3-0.2,0.5-0.2s0.4,0.1,0.5,0.2C3.9,2,4,2.2,4,2.3V4.3z M3.5,4.6V2.1c0-0.2-0.1-0.2-0.2-0.2C3.2,1.9,3.1,2,3.1,2.1v2.5
		c0,0.2,0.1,0.2,0.2,0.2C3.4,4.8,3.5,4.7,3.5,4.6z"/>
	<path d="M5.8,4.9H5.1V4.8c0,0.1-0.2,0.1-0.3,0.1c-0.3,0-0.5-0.2-0.5-0.6V1.9H4.1V1.8h0.6v2.8c0,0.2,0.1,0.2,0.2,0.2s0.1,0,0.2-0.1
		V1.9H5V1.8h0.6v3h0.1v0.1H5.8z"/>
	<path d="M7.5,4.9H6.9V2.1c0-0.2-0.1-0.2-0.2-0.2S6.6,1.9,6.5,2v2.8h0.2v0.1H5.9V4.8H6V1.9H5.9V1.8h0.6v0.1c0.1-0.1,0.2-0.1,0.3-0.1
		c0.3,0,0.5,0.2,0.5,0.6v2.5H7.5L7.5,4.9L7.5,4.9z"/>
	<path d="M9,4.3c0,0.2,0,0.3-0.2,0.4C8.7,4.9,8.5,4.9,8.4,4.9S8,4.9,7.9,4.7S7.7,4.5,7.7,4.3v-2c0-0.2,0.1-0.3,0.2-0.4
		s0.3-0.2,0.5-0.2s0.4,0.1,0.5,0.2C9,2,9,2.2,9,2.3v0.4H8.6V2.1c0-0.2-0.1-0.2-0.2-0.2C8.3,1.9,8.2,2,8.2,2.1v2.5
		c0,0.2,0.1,0.2,0.2,0.2c0.1,0,0.2-0.1,0.2-0.2V3.9H9V4.3z"/>
	<path d="M10,4.9H9.2V4.8h0.1V1.9H9.2V1.8h0.6v3L10,4.9L10,4.9z M9.9,1.4H9.4V0.7h0.5V1.4z"/>
	<path d="M11.8,4.9h-0.6V2.1c0-0.2-0.1-0.2-0.2-0.2c-0.1,0-0.1,0-0.2,0.1v2.8H11v0.1h-0.8V4.8h0.2V1.9h-0.2V1.8h0.6v0.1
		c0.1-0.1,0.2-0.1,0.3-0.1c0.3,0,0.5,0.2,0.5,0.6v2.5H11.8L11.8,4.9L11.8,4.9z"/>
	<path d="M13.4,1.9h-0.1v3.3c0,0.2-0.1,0.3-0.2,0.4s-0.3,0.2-0.5,0.2s-0.3-0.1-0.5-0.2s-0.2-0.3-0.2-0.4V5h0.5v0.4
		c0,0.2,0.1,0.2,0.2,0.2c0.1,0,0.2-0.1,0.2-0.2V4.7c-0.1,0.1-0.2,0.1-0.3,0.1c-0.3,0-0.5-0.2-0.5-0.6v-2c0-0.4,0.2-0.6,0.5-0.6
		c0.1,0,0.3,0,0.3,0.1v0.1h0.6V1.9z M12.8,4.6V2c-0.1-0.1-0.1-0.1-0.2-0.1c-0.1,0-0.2,0.1-0.2,0.2v2.4c0,0.2,0.1,0.2,0.2,0.2
		S12.7,4.7,12.8,4.6z"/>
	<path d="M15.1,4.3c0,0.2-0.1,0.3-0.2,0.4s-0.3,0.2-0.5,0.2h-0.8V4.8h0.1v-4h-0.1V0.7h0.8c0.2,0,0.4,0.1,0.5,0.2s0.2,0.3,0.2,0.4
		v0.8c0,0.3-0.1,0.4-0.4,0.6C15,2.8,15.1,3,15.1,3.2V4.3z M14.6,2.4V1c0-0.1,0-0.1-0.1-0.2s-0.1-0.1-0.2-0.1h-0.2v1.8h0.2
		c0.1,0,0.1,0,0.2-0.1S14.6,2.4,14.6,2.4z M14.6,4.5V3c0-0.1,0-0.1-0.1-0.2s-0.1-0.1-0.2-0.1h-0.2v2.1h0.2c0.1,0,0.1,0,0.2-0.1
		S14.6,4.6,14.6,4.5z"/>
	<path d="M16.8,4.3c0,0.2-0.1,0.3-0.2,0.4s-0.3,0.2-0.5,0.2s-0.4-0.1-0.5-0.2s-0.2-0.3-0.2-0.4v-2c0-0.2,0.1-0.3,0.2-0.4
		s0.3-0.2,0.5-0.2c0.2,0,0.4,0.1,0.5,0.2s0.2,0.3,0.2,0.4v1h-0.9v1.2c0,0.2,0.1,0.2,0.2,0.2s0.2-0.1,0.2-0.2V3.9h0.5
		C16.8,3.9,16.8,4.3,16.8,4.3z M16.3,3.3V2.1c0-0.2-0.1-0.2-0.2-0.2S15.9,2,15.9,2.1v1.2H16.3z"/>
	<path d="M18.5,4.9h-0.6V4.8c-0.1,0.1-0.2,0.1-0.3,0.1c-0.3,0-0.5-0.2-0.5-0.6V3.7c0-0.4,0.2-0.6,0.7-0.6h0.1v-1
		c0-0.2-0.1-0.2-0.2-0.2S17.5,2,17.5,2.1v0.6H17V2.3c0-0.2,0.1-0.3,0.2-0.4s0.3-0.2,0.5-0.2s0.4,0.1,0.5,0.2s0.2,0.3,0.2,0.4v2.4
		h0.2v0.2H18.5z M17.9,4.7V3.2h-0.1c-0.2,0-0.2,0.1-0.2,0.2v1.1c0,0.2,0.1,0.2,0.2,0.2C17.8,4.8,17.9,4.8,17.9,4.7z"/>
	<path d="M20.3,4.9h-0.6V2.1c0-0.2-0.1-0.2-0.2-0.2s-0.1,0-0.2,0.1v2.8h0.2v0.1h-0.8V4.8h0.2V1.9h-0.2V1.8h0.6v0.1
		c0.1-0.1,0.2-0.1,0.3-0.1c0.3,0,0.5,0.2,0.5,0.6v2.5h0.1l0,0H20.3z"/>
	<path d="M21.7,4.3c0,0.2-0.1,0.3-0.2,0.4S21.2,4.9,21,4.9s-0.4-0.1-0.5-0.2s-0.2-0.3-0.2-0.4V3.9h0.5v0.6c0,0.2,0.1,0.2,0.2,0.2
		s0.2-0.1,0.2-0.2V4.1c0-0.2-0.1-0.3-0.2-0.5l-0.5-0.5c-0.1-0.1-0.2-0.3-0.2-0.5V2.3c0-0.2,0.1-0.3,0.2-0.4s0.3-0.2,0.5-0.2
		s0.3,0.1,0.5,0.2s0.2,0.3,0.2,0.4v0.4h-0.5V2.1c0-0.2-0.1-0.2-0.2-0.2S20.8,2,20.8,2.1v0.4c0,0.2,0.1,0.3,0.2,0.4l0.5,0.5
		c0.1,0.1,0.2,0.3,0.2,0.5V4.3z"/>
	<path d="M22.5,4.9H22V4.2h0.5V4.9z"/>
	<path d="M24.2,4.9h-0.6V4.8c-0.1,0.1-0.2,0.1-0.3,0.1c-0.3,0-0.5-0.2-0.5-0.6V3.7c0-0.4,0.2-0.6,0.7-0.6h0.1v-1
		c0-0.2-0.1-0.2-0.2-0.2S23.2,2,23.2,2.1v0.6h-0.5V2.3c0-0.2,0.1-0.3,0.2-0.4s0.3-0.2,0.5-0.2s0.4,0.1,0.5,0.2S24,2.2,24,2.3v2.4
		h0.2V4.9z M23.6,4.7V3.2h-0.1c-0.2,0-0.2,0.1-0.2,0.2v1.1c0,0.2,0.1,0.2,0.2,0.2C23.4,4.8,23.5,4.8,23.6,4.7z"/>
	<path d="M25.7,4.4c0,0.4-0.2,0.6-0.5,0.6c-0.1,0-0.3,0-0.3-0.1v0.8H25v0.1h-0.8V5.6h0.2V1.9h-0.2V1.8h0.6v0.1
		c0.1-0.1,0.2-0.1,0.3-0.1c0.3,0,0.5,0.2,0.5,0.6v2H25.7z M25.3,4.6V2.1c0-0.2-0.1-0.2-0.2-0.2S25,1.9,24.9,2v2.7
		C25,4.8,25,4.8,25.1,4.8C25.2,4.8,25.3,4.7,25.3,4.6z"/>
	<path d="M27.4,4.4c0,0.4-0.2,0.6-0.5,0.6c-0.1,0-0.3,0-0.3-0.1v0.8h0.2v0.1H26V5.6h0.2V1.9H26V1.8h0.6v0.1c0.1-0.1,0.2-0.1,0.3-0.1
		c0.3,0,0.5,0.2,0.5,0.6C27.4,2.4,27.4,4.4,27.4,4.4z M26.9,4.6V2.1c0-0.2-0.1-0.2-0.2-0.2s-0.1,0-0.2,0.1v2.7
		c0.1,0.1,0.1,0.1,0.2,0.1C26.9,4.8,26.9,4.7,26.9,4.6z"/>
</g>
</svg>
