<?xml version="1.0" encoding="utf-8"?>
<!-- Generator: Adobe Illustrator 22.1.0, SVG Export Plug-In . SVG Version: 6.00 Build 0)  -->
<svg version="1.1" id="Layer_1" xmlns="http://www.w3.org/2000/svg" xmlns:xlink="http://www.w3.org/1999/xlink" x="0px" y="0px"
	 viewBox="0 0 632 395" style="enable-background:new 0 0 632 395;" xml:space="preserve">
<style type="text/css">
	.st0{fill:#93C83D;}
	.st1{fill:#49B649;}
	.st2{fill:#8D8F91;}
</style>
<g id="HILLLine">
	<g>
		<g>
			<path class="st0" d="M57.2,338.4c2.7,4.2,8.5,5.6,13.1,6.5c7.2,1.5,14.7,2.1,22.1,2.4c6.2,0.3,12.6,0.4,18.8-0.5
				c10.7-1.5,20.7-6,29.7-11.9c10.1-6.7,19.1-15.3,30.5-19.9c9.8-4,20.4-6,29.4-11.9c8.8-5.7,15.6-13.7,23-21.1
				c8.4-8.4,17.3-16.2,25.8-24.5c18-17.7,35.9-35.3,54.4-52.5c16.8-15.6,33-32.2,52-45.3c8.5-5.9,17.6-10.6,26.8-15.1
				c9.2-4.5,18.8-9.1,28.9-10.9c10.3-1.9,20.5,0.9,29.8,5.2c10,4.6,19.6,8.8,30.2,12c6.4,1.9,12.6,4,18.8,6.5
				c5.6,2.3,11.2,4.4,17.3,4.8c13.1,1,26-4.2,38.9-5.6c6.1-0.7,12.3-1.2,18.3-2.5c6.6-1.5,12.3-4.2,18.2-7.4
				c12.2-6.5,23-12.2,36.7-6.2c2.9,1.3,5.5-3,2.5-4.3c-9.1-4-18-4.7-27.4-1c-10.2,4-18.9,10.9-29.6,13.6
				c-11.6,2.9-23.7,2.8-35.4,5.4c-5.6,1.3-11.2,2.7-16.9,3c-6.7,0.4-12.7-1.2-18.9-3.7c-11-4.4-22.4-7.3-33.4-11.4
				c-9.4-3.5-18-8.9-27.7-11.8c-19.2-5.8-37.1,2.2-54.1,10.7c-19.1,9.5-35.7,21.3-51.6,35.5c-17.5,15.8-34.7,32.1-51.8,48.4
				c-8.7,8.3-17.2,16.8-25.6,25.3c-8.6,8.8-17.8,16.8-26.6,25.4c-8,7.7-15.1,16.6-24.3,22.8c-9.2,6.2-20.3,8.1-30.4,12.5
				c-11.7,5-20.9,14-31.6,20.7c-10,6.4-21.2,10.6-33.2,10.9c-7.6,0.2-15.2-0.1-22.8-0.9c-4.9-0.5-16.3-0.8-19.4-5.6
				C59.8,333.2,55.4,335.7,57.2,338.4L57.2,338.4z"/>
		</g>
	</g>
</g>
<g id="Tree">
	<path class="st1" d="M97.6,272c-2.9,0.4-5.8,1.3-9.2,1.3c1.3,1.4,1.3,2.1-0.5,2.1c-0.7,0-1.4,0.1-2.1,0c-1.3,0-2,0.7-1.6,1.9
		c0.8,2.6-0.6,3.4-2.7,3.8c-1.2,0.3-2.3,0.3-3.5,0.3c-1,0-1.8,0.2-2.6,1.2c-1.2,1.6-2.4-0.1-3.6-0.6c-1-0.4-1-2.2-2.4-2
		c-2.3,0.4-4.6,1-6.9,1.5c-0.2,0.1-0.4,0.1-0.3,0.4c1.3,2.4-0.7,2.1-2,2.4c-0.7,0.1-1.4,0.5-2.1,0.7c-1.4,0.4-1.2,0.8-0.5,1.6
		c0.4,0.5,1,1.2,0.6,1.9c-0.5,0.9-1.4,0.5-2.1,0.5c-2.2-0.1-4.2-0.7-6-1.8c-1.5-0.9-2.8-1.2-4.4-0.3c-1.7,0.9-2.8,0.3-2.5-1.7
		c0.2-1.7,0-2.4-2.1-2c-2.2,0.4-4.6,0.3-6.8-0.3c-0.7-0.2-1.6-0.2-1.7-1.1c0-0.8,0.8-1.1,1.4-1.4c0.7-0.4,1.4-0.7,2.2-1.1
		c-0.2,0-0.3-0.1-0.4-0.1c-1.2-0.3-3.1-0.3-3.2-1.4c-0.2-1.4,1.7-1.5,2.8-2.1c0.7-0.3,1.5-0.3,2.2-0.7c0.9-0.4,2.4,0.1,2.7-1
		c0.3-1.3-0.1-2.7-1.6-3.5c-0.4,0.9-0.7,1.8-1.1,2.7c-1.3,2.2-4.3,2.3-5.6,0.1c-0.4-0.7-0.6-1.4-0.8-2.2c-0.3-1.1-1.1-0.9-1.9-0.9
		c-0.8-0.1-1.6-0.1-2.4-0.2c0-1.1,1.1-1.3,1.4-2.1c-2.9-0.7-2.9-0.7-5.2,1.1c-2.1,1.6-5,0.5-6.7-2.7c-0.6-1.3-1.4-1.7-2.6-1.9
		c-2.3-0.4-2.4-0.6-0.9-2.5c0.3-0.4,0.6-0.7,1.1-1.3c-2.2-0.1-2.7-2.6-5-2.7c1.7-1.3,3.5-1.3,5.5-1.6c-1.1-1.2-2.3-1.3-3.4-1.7
		c-0.5-0.2-1.3-0.2-1.2-0.9c0-0.8,0.9-0.8,1.4-0.9c0.8-0.2,1.7-0.2,2.5-0.3c-0.3-1.3-1-1.9-2.1-2c-1.8-0.3-1.4-1.1-0.4-1.9
		c1.2-1,1.9-1.7-0.3-2.3c-1.3-0.3-0.4-1.2,0.1-1.5c1.3-1.1,2.1-2.3,1.3-4.1c-0.4-0.9,0.4-1,1-1.2c1.8-0.5,3.6-0.4,5.4-0.1
		c1.3,0.2,2.2,0,1.7-1.7c-0.4-1.4,0.2-2.6,0.9-3.8c0.3-0.6,1.1-1.2,0.6-1.9c-0.4-0.6-1.2,0-1.7,0c-2.1,0.1-4.2,0.2-6.4,0.3
		c-0.7,0-1.8-0.1-1.9-0.9c-0.1-0.8,0.9-1,1.5-1.3c0.8-0.4,1.7-0.4,2.3-1.2c-0.2,0-0.4,0-0.6-0.1c-1-0.7-3,0.1-3.1-1.3
		c-0.1-1.3,1.8-1.6,2.9-1.9c1-0.3,1.1-0.9,1.1-1.7c0.3-4.5,0.8-5,5.2-5.6c3.2-0.4,6.4-0.1,9.3-1.8c0.3-0.2,0.6-0.2,0.8-0.4
		c0.1-0.1,0.2-0.3,0.3-0.5c-1.4-1-3.2-0.5-4.6-1.4c0.3-0.8,1-1,1.7-1.2c1.6-0.5,3-1.1,3.7-2.9c0.6-1.4,2.2-1.8,3.6-1.8
		c1.7,0,2.7-0.4,2.3-2.4c-0.3-1.5,0.5-2.7,1.6-3.8c1.4-1.3,2.8-1.2,4.2,0.1c3.2,3,3.1,3,7.3,1.1c-0.5-0.6-1.3-0.5-1.9-0.8
		c-0.5-0.3-1.4-0.1-1.4-1c0-0.7,0.7-1,1.3-1.3c1.1-0.5,2.3-0.9,3.5-1.4c0.4-0.2,0.8-0.6,0.8-1.1c0-0.7-0.6-0.6-1-0.7
		c-0.5-0.2-1.1-0.2-1.6-0.4c-0.8-0.3-2.1-0.3-2.2-1.4c0-1.1,1.1-1.3,2-1.7c0.2-0.1,0.4-0.3,0.5-0.3c0.3-0.3,0.2-0.3,0-0.4
		c-1-0.3-2.6-0.6-2.6-1.7c0.1-1.3,1.8-1.6,3-1.8c4.2-0.9,8.4-1.3,13.1,0.2c-2.3-2.5-0.2-3.5,1.1-5c-2.4-0.3-4.3-1.3-6.1-2.2
		c-0.6-0.3-1.4-0.7-1.3-1.5c0.2-0.8,1.1-0.8,1.8-0.8c0.7-0.1,1.5-0.1,2.6-0.1c-1.2-0.6-2.1-1.1-3-1.6c-0.6-0.3-1.2-0.8-1-1.4
		c0.1-0.8,1-0.8,1.5-0.8c1.8,0,3.6,0.2,5.4,0.3c0.4,0,1.1,0.3,1.1-0.4c0-0.6-0.3-1-1.1-0.9c-1.3,0.1-2.7,0.1-4,0.1
		c-0.3,0-0.9,0-0.9-0.6c0-0.3,0.3-0.5,0.5-0.7c1.3-1.2,3.1-1.5,5.1-2.6c-2.3-0.1-4.1-0.2-6-0.3c0.9-2.2,3.1-2.3,4.8-3.1
		c0.8-0.4,1.9-0.1,1.5-1.7c-0.3-1,1-0.9,1.5-0.8c2.8,0.4,5.2-0.5,7.8-1.3c0.4-0.1,1.2,0,1-0.7c-0.8-2.2,0.9-2,2-2.1
		c2.1-0.2,4.2,0.4,5.6-2.2c0.7-1.3,2.3-0.7,3.1,0.5c0.8,1.1,1.6,2.1,2.6,3c2.2,2,4.2,1.5,5.1-1.3c0-0.1,0.1-0.3,0.1-0.4
		c0.5-1.5,1.3-2.9,2.9-3c1.6-0.2,2.1,1.3,2.8,2.5c0.3,0.6,0.2,1.9,1.7,1.2c1.1-0.6,1.6-1.2,1.1-2.4c-0.1-0.2-0.2-0.6-0.3-0.6
		c-3.2,0.9-4-3.8-7.2-2.9c-0.4,0.1-1.1,0.1-1.2-0.4c-0.2-0.7,0.4-0.9,0.9-1.2c0.1-0.1,0.3-0.1,0.4-0.2c0.5-0.4,1.6-0.2,1.4-1.2
		c-0.1-0.9-0.9-0.9-1.7-1c-0.4-0.1-1,0.2-1.2-0.5c-0.1-0.5,0.4-0.8,0.8-1.1c1-0.7,2.2-1,2.8-2.5c0.4-1.1,2.3-0.6,3.5-0.8
		c0.5-0.1,1.6,0.4,1.5-0.6c-0.4-2.4,1.2-1.4,2.2-1.4c1,0.1,2.1,0.3,3,0.6c1.5,0.5,2.5,0.5,3.3-1.1c0.6-1.3,1.8-1.6,2.6-0.4
		c1.7,2.6,3.2,0.7,4.1-0.3c1.7-1.9,2.9-1.9,5-0.6c2,1.2,4.4,1.7,5.1,4.4c0.2,0.6,1,0,1.5-0.1c2-0.6,3.9-0.9,6-0.5
		c-0.5,1.7-2.2,2.1-2.8,3.6c1.1,0.3,1.8-0.1,2.5-0.9c1.5-1.9,3.4-1.7,4.7,0.4c0.6,1.1,0.5,2.7,2.3,3c0.1,0,0.2,0.3,0.2,0.4
		c-1,2.5,1.2,2.3,2.4,2.9c0.8,0.4,2.1,0.7,2,1.7c-0.1,1.2-1.5,0.7-2.3,0.9c-0.5,0.1-1.1-0.1-1.8,0.7c3.5,0.4,4.7,3.4,6.9,5.3
		c0.8,0.7,1.4,0.9,2.5,0.7c2.3-0.5,4.6-0.5,6.9-0.1c-0.1,0.9-0.8,1.2-1.1,1.6c-0.7,0.9-1,1.7,0.5,2c1.4,0.3,2,1.2,1.9,2.5
		c-0.2,1.6,0.5,2.1,1.9,2.2c0.6,0,1.6,0.2,1,1c-1.6,2.2,0.3,2.2,1.5,2.8c0.6,0.3,1.2,0.6,2.1,1.1c-2.9,1.6-1.2,2.2,0.3,2.9
		c0.7,0.3,1.5,0.5,2,1.3c-0.5,1.1-2.7,0.4-2.5,1.9c0.1,1.3,2,1,2.7,2.2c-1.5,1.1-3.3,1.5-4.9,1.1c-3-0.8-4.6,1.3-6.5,2.7
		c-0.8,0.6-1.7,1.4-2.6,1.4c-2.6-0.2-2.7,1.4-2.9,3.2c0.9,0.1,1.1-0.6,1.5-1c1.6-1.6,3.2-1.4,4.7,0.2c0.6,0.7,1.2,1.3,2.2,1.2
		c2.1-0.4,4-0.4,5.4,1.7c0.4,0.6,1,0,1.5-0.1c4.9-1.6,5.8-1.4,8.9,2.6c0.6,0.8,1.3,1.3,2.2,1.5c1,0.2,2.3,0.4,2.5,1.4
		c0.3,1.3-1.2,1.6-1.9,2.4c0.5,0.8,2.2,0.9,1.8,2.1c-0.3,1.1-1.6,1.5-2.7,1.7c-0.8,0.2-1.5,0.3-1.3,1.3c0.2,1.2,1.1,0.6,1.7,0.5
		c2.8-0.3,5.6-0.7,8.5,0c0.9,0.2,2.1,0.2,2.3,1.3c0.2,1-0.9,1.3-1.5,1.9c-0.2,0.2-0.5,0.3-0.8,0.5c0.9,0.5,2.3,0.5,2.2,2
		c-0.2,2-1.6,3-3.3,3.3c-0.4,0.3-0.3,0.3-0.1,0.5c0.8,0.6,2.3,1.1,2.1,2.3c-0.3,1.1-1.8,1.1-2.8,1.3c-1.6,0.3-3.3,0.3-4.8,0.1
		c1.3,1.6,0.9,2.5-1.3,3c-3.6,0.9-7.2,0.2-10.9-0.1c2.5,2.4,5.1,2.8,8.2,1.6c1.5-0.6,3.2-0.7,4.8-1.1c2.1-0.5,3.8-0.5,4,2.3
		c0.1,1.2,1,1,1.8,1c2.1-0.1,4.3-0.1,6.4-0.2c0.8,0,1.8,0.1,1.7,1.1c-0.2,3.3,0.5,6.9-3.1,9c-1.2,0.7-0.9,1.2-0.1,1.8
		c1.8,1.4,0.6,2.1-0.7,2.5c-1.3,0.4-2.8,0.6-4.2,0.9c0.7,1,1.7,2.1-0.6,2.1c-0.5,0-1.3-0.1-1.2,0.7c0.1,0.8,0.8,0.6,1.3,0.6
		c3.4-0.1,6.6,0.7,9.7,1.9c0.8,0.3,2.2,0.4,2.2,1.4c0,1.2-1.4,1.3-2.3,1.6c-0.3,0.1-0.6,0.3-0.9,0.4c1.1,0.8,3.2,0.8,3,2.1
		c-0.2,1.4-2.2,1.4-3.6,1.7c-3.2,0.7-6.4,0.1-9.9,0c1.2,1.3,2.3,2.5,3.7,3.3c1.7,0.9,1.4,1.6-0.1,2.4c-0.8,0.4-1.7,0.8-2.5,1.2
		c-0.2,0.3-0.1,0.3,0.1,0.3c1.2,0.2,3.1-0.2,3.2,1.1c0.2,1.5-1.7,1.8-2.9,2.3c-2.2,0.9-4.7,0.9-7.4,1.5c1.2,0.8,2,1.5,3.1,2.3
		c-3.9,1.4-7.7,1.1-11.4,0.8c-0.8-0.1-1.6-0.3-2.3-0.5c-0.7-0.2-1.3-0.2-1.7,0.4c-0.7,0.8,0.2,1.1,0.5,1.5c1.1,1.7,1.1,1.9-1.2,2.4
		c0.3,1.3,2.5,2,1.6,3.3c-0.9,1.2-2.6,0.4-4,0.2c-1.6-0.2-3-0.1-4.4,1.1c-1.9,1.7-4.5,2.3-7,2.6c-1.1,0.2-2.3,0.4-2-1.5
		c0.2-0.9-0.6-0.8-1.1-0.7c-1.4,0.4-2.8,0.1-4.2,0.2c-1,0.1-2.2-0.4-2,1.6c0.1,1.3-1.3,1.2-2.2,1.2c-3.7,0-7.2-0.6-10.5-2.4
		c-1-0.5-1.9-0.9-3.1-0.7c-2.2,0.2-2.9-0.6-2.3-2.8c0.1-0.5,0.7-1.2,0-1.5c-3.1-1.3-0.7-2.2,0.1-3.3c0.2-0.2,0.4-0.5,0.9-1
		c-2.2,0.4-3.5-1-4.9-1.8c-1.6-1-3.1-1.3-4.8-0.3c-0.8,0.4-1.7,0.8-2.7,0.4c0.5-1.4,1.3-2.6,2.9-3.1c11.6-3.4,23.2-7,35-9.7
		c4.1-0.9,8.3-1.8,12.5-2.2c0.6-0.1,1.4,0.2,1.5-0.8c0-0.4,0.1-0.8-0.3-1.1c-0.7-0.4-0.9,0.1-1.2,0.6c-0.2,0.3-0.9,0.2-1.4,0.2
		c-2.9,0.1-5.8,0.7-8.6,1.3c-12,2.4-23.8,5.7-35.6,9c-1.4,0.4-3.5,1.6-4.1,0.6c-0.9-1.4,0.8-3,1.8-4.2c1.6-2,3.9-3.7,4.9-6
		c1.7-3.8,4.9-5.3,8.2-6.9c3.9-1.8,8-3.1,12.1-4.5c-6.4,0.4-11.8,3.9-18.1,5.8c2.2-12,8.5-20.7,18.4-27c-5.5,2-10.1,5.1-13.5,9.8
		c-3.3,4.6-4.9,10-7,15.2c-2.3,5.8-5.7,10.6-11.3,14c-1.3-6.1-3.3-11.7-3-17.8c0.2-3.6,1.6-6.3,5-7.9c2-0.9,3.5-2.3,4.9-4
		c2.5-3.1,3.6-7,5.9-10.2c2.4-3.5,4.6-7.1,6.9-10.7c0.2-0.2,0.3-0.3,0.5-0.5c0.1-0.1,0.5-0.1,0.1-0.3c0,0.1-0.1,0.2-0.1,0.4
		c-0.3,0-0.5,0.2-0.5,0.5c-0.8,0-1.1,0.7-1.6,1.3c-4.3,5-8.5,10.1-11.4,16.1c-1.8,3.7-4.9,6-9.1,7.3c0.3-3.7,0.6-7.3,0.9-10.8
		c0.5-5.8,0.9-11.6,1.7-17.4c1.3-8.8,5-16.8,8.4-24.9c0.5-1.2,0.6-2.5-0.4-4c-3.5,9.1-9.9,16.3-11.7,26.3
		c-2.1-7.3,0.3-14.1-0.7-20.9c-1.2,3.1-1.6,6.3-1.6,9.6c0,3.6,0.1,7.3-0.1,10.9c-0.2,3.4-0.5,3.5-3.5,1.9c-0.3-0.1-0.6-0.2-0.9-0.4
		c-3.6-2.1-7.3-4-8.2-8.8c-0.4-2-1.8-3.6-2.8-5.4c-1-1.7-2.5-2-4.9-2.2c2.6,2.7,4.4,5.2,5.1,8.7c-3.6-1.1-5.8-4.4-9.5-4.4
		c1,0.8,2,1.5,3.1,2.1c4.7,2.6,9.1,5.6,13.2,9.1c4.1,3.5,6.8,7.7,6.1,13.5c-0.8,6-1.3,12-1.8,18.1c-0.5,6.4-0.6,6.5-6.1,2.8
		c-1.8-1.2-3.5-2.5-5.2-3.7c-0.1,0.1-0.2,0.2-0.2,0.3c0.5,1.1,1,2.1,1.6,3.4c-8.7-1-16.5-3.9-24.5-6.2c2.7,0.7,4.8,2.6,7.5,3.2
		c7.1,1.6,14.2,3.6,21.1,5.9c5.4,1.8,8.2,5.6,8.5,11.2c0.2,3.9-0.2,7.9-0.4,11.8c-0.1,1.7-0.9,1.2-1.9,0.8
		c-8.3-3.5-16.9-6.5-24.3-11.9c-2.5-1.8-5.6-3-8.9-3.1c4.4,2.6,9,5.1,12.8,8.6c-5.8-0.8-11.6-1.2-17.5-1.3c0.8,0.7,1.7,0.5,2.5,0.5
		c8.2,0.8,16.4,2.1,24.2,4.9C93.7,267.4,96.4,268.9,97.6,272z M132.6,211.4c0,0,0.1-0.1,0.1-0.1
		C132.6,211.4,132.6,211.4,132.6,211.4c0,0.1-0.1,0.1-0.2,0.1c0,0,0,0.1,0,0.1C132.4,211.6,132.5,211.5,132.6,211.4z M50.6,207.2
		c0.7,0.9,1.2,1.5,1.7,2.1c0.3,0.5,0.7,0.9,1.3,0.6c0.6-0.3,0.7-0.8,0.8-1.4c0.2-0.9-0.6-0.7-1-0.9
		C52.6,207.5,51.8,207.4,50.6,207.2z M27.5,235.1c1.6-0.2,2.8-0.4,4-0.6C30.2,233.1,29,233.5,27.5,235.1z M66.6,235.6
		c-1.2-0.9-2.1-1.2-3.6-1.3C64.2,235,65,235.4,66.6,235.6z M62.2,233.8c-0.1,0-0.3-0.1-0.4-0.1c-0.3,0-0.3,0.1,0,0.2
		c0.1,0,0.3,0,0.5,0C62.2,234,62.2,233.9,62.2,233.8z"/>
	<path class="st1" d="M131.2,213.3c-2.3,3.6-4.4,7.2-6.9,10.7c-2.3,3.2-3.4,7.1-5.9,10.2c-1.4,1.7-2.9,3.1-4.9,4
		c-3.5,1.5-4.8,4.3-5,7.9c-0.3,6.1,1.7,11.7,3,17.8c5.6-3.4,9-8.2,11.3-14c2.1-5.2,3.7-10.6,7-15.2c3.4-4.7,7.9-7.9,13.5-9.8
		c-9.9,6.4-16.2,15.1-18.4,27c6.3-1.9,11.7-5.4,18.1-5.8c-4.1,1.4-8.2,2.7-12.1,4.5c-3.3,1.6-6.5,3.1-8.2,6.9
		c-1.1,2.3-3.3,3.9-4.9,6c-1,1.3-2.7,2.8-1.8,4.2c0.6,1,2.7-0.2,4.1-0.6c11.8-3.3,23.6-6.6,35.6-9c2.8-0.6,5.7-1.2,8.6-1.3
		c0.5,0,1.2,0.1,1.4-0.2c0.3-0.5,0.5-1,1.2-0.6c0.4,0.2,0.3,0.7,0.3,1.1c-0.1,0.9-0.9,0.7-1.5,0.8c-4.2,0.4-8.4,1.2-12.5,2.2
		c-11.8,2.7-23.4,6.3-35,9.7c-1.6,0.5-2.4,1.6-2.9,3.1c-2.2,2.8-3,6.2-4,9.5c-2.7,9.6-4.1,19.3-4.8,29.3c-0.3,4.9,1.3,9.3,3.1,13.6
		c2.2,5.4,4.6,10.7,7,16c0.7,1.6,0.2,2-1.2,2.3c-2.5,0.5-5,0.7-7.7,0.6c-4-0.2-8.1,1-12.3-0.4c2.7-5.9,2.5-12.2,1.8-18.6
		c-0.3-2.9-0.7-5.8-0.6-8.7c0.2-6.5,1.8-12.8,2.7-19.1c1-7.1,2.1-14.2,0.2-21.3c-0.4-1.3-0.6-2.8-1.9-3.7c-1.2-3.2-3.8-4.6-6.7-5.7
		c-7.8-2.8-16-4.1-24.2-4.9c-0.8-0.1-1.7,0.1-2.5-0.5c5.9,0.1,11.6,0.5,17.5,1.3c-3.9-3.4-8.4-5.9-12.8-8.6c3.3,0.1,6.4,1.3,8.9,3.1
		c7.5,5.3,16,8.4,24.3,11.9c0.9,0.4,1.8,0.9,1.9-0.8c0.2-3.9,0.6-7.8,0.4-11.8c-0.3-5.6-3.2-9.4-8.5-11.2c-6.9-2.3-14-4.3-21.1-5.9
		c-2.7-0.6-4.8-2.5-7.5-3.2c8,2.3,15.8,5.2,24.5,6.2c-0.6-1.3-1.1-2.3-1.6-3.4c0.1-0.1,0.2-0.2,0.2-0.3c1.7,1.2,3.4,2.5,5.2,3.7
		c5.5,3.6,5.6,3.5,6.1-2.8c0.5-6,1-12.1,1.8-18.1c0.8-5.8-1.9-10-6.1-13.5c-4.1-3.5-8.5-6.4-13.2-9.1c-1.1-0.6-2.1-1.3-3.1-2.1
		c3.7-0.1,5.9,3.3,9.5,4.4c-0.7-3.5-2.5-6-5.1-8.7c2.4,0.2,3.8,0.4,4.9,2.2c1.1,1.7,2.5,3.4,2.8,5.4c0.9,4.8,4.5,6.7,8.2,8.8
		c0.3,0.2,0.6,0.2,0.9,0.4c3,1.6,3.3,1.5,3.5-1.9c0.2-3.6,0.1-7.2,0.1-10.9c0-3.3,0.4-6.5,1.6-9.6c1.1,6.7-1.4,13.5,0.7,20.9
		c1.7-10,8.2-17.3,11.7-26.3c0.9,1.5,0.9,2.8,0.4,4c-3.4,8.1-7.1,16.1-8.4,24.9c-0.8,5.8-1.2,11.6-1.7,17.4c-0.3,3.5-0.6,7-0.9,10.8
		c4.3-1.2,7.3-3.6,9.1-7.3c3-6,7.1-11.1,11.4-16.1C130,214.1,130.3,213.4,131.2,213.3L131.2,213.3z"/>
	<path class="st1" d="M50.6,207.2c1.1,0.2,2,0.3,2.8,0.5c0.5,0.1,1.3-0.1,1,0.9c-0.1,0.5-0.2,1.1-0.8,1.4c-0.7,0.3-1-0.1-1.3-0.6
		C51.9,208.7,51.4,208.1,50.6,207.2z"/>
	<path class="st1" d="M27.5,235.1c1.5-1.6,2.7-2,4-0.6C30.3,234.7,29.1,234.8,27.5,235.1z"/>
	<path class="st1" d="M66.6,235.6c-1.5-0.1-2.4-0.5-3.6-1.3C64.4,234.3,65.3,234.7,66.6,235.6z"/>
	<path class="st1" d="M62.2,233.8c0,0,0,0.1,0,0.1c-0.2,0-0.3,0.1-0.5,0c-0.3-0.1-0.3-0.2,0-0.2C61.9,233.8,62,233.8,62.2,233.8z"/>
	<path class="st1" d="M132.6,211.4c0,0,0.1-0.1,0.1-0.1C132.6,211.3,132.6,211.4,132.6,211.4L132.6,211.4z"/>
	<path class="st1" d="M132.6,211.4c-0.1,0.1-0.1,0.2-0.2,0.3c0,0,0-0.1,0-0.1C132.5,211.5,132.5,211.5,132.6,211.4
		C132.6,211.4,132.6,211.4,132.6,211.4z"/>
	<path class="st1" d="M131.6,212.9c0-0.1,0.1-0.2,0.1-0.4C132.1,212.8,131.7,212.8,131.6,212.9C131.6,212.8,131.6,212.9,131.6,212.9
		z"/>
	<path class="st1" d="M131.2,213.3c0-0.3,0.1-0.5,0.5-0.5c0,0,0,0,0,0C131.5,213,131.3,213.2,131.2,213.3
		C131.2,213.3,131.2,213.3,131.2,213.3z"/>
</g>
<g id="LISA">
	<g>
		<path class="st2" d="M360.7,185.2c-0.3-0.5-1.1-0.8-1.7-1.1c-1.6,3.5,0.8,7.7,1.8,11.3c-7.1-0.6-14.7-4.8-21.8-6.4
			c-10.3-2.3-20.5-4.8-30.7-7.1c-10.5-2.4-7.6-6.3-7.6-16.2c0-8.9-0.6-17.1-2.6-25.7c8.9-3.6,15.6-9.7,18.7-18.9
			c2.2-6.4,2.7-13.3,3-20c0.3-7.8,0.6-5.7,6.4-9.9c1.3-1,8.3-8.2,5.2-9.6c-2.7-1.2-4.7,5.5-7.1,7.2c-4.3,3.1-6.2,1.2-7.4,6.7
			c-1.3,5.8-0.6,13.8-1.1,19.7c-3.6-2.1-4.7-6.6-9.2-8.5c-5.3-2.3-11.9-1.8-17.1,0.2c-13.2,5.2-16.6,15.1-13.9,27.9
			c-12.7-6.9-8.6-17.6-15-28.1c-3-4.9-3.1-2.3-8.2-4.4c-2.1-0.9-6-8.1-8.1-6.1c0.3,0.8,0.3,1.6,0.2,2.4c4.2,7.6,12.1,5.4,14.7,13.6
			c2.4,7.2,2.8,15.7,8.6,21.2c3.5,3.3,8.6,5,13.1,6.3c3,0.9,11,0.1,13.1,1.4c5.7,3.6,4.2,20.6,4,26.3c-0.2,10-1.4,16.9-5.5,26
			c-1.2,2.7-3.2,10.4-6.3,11.4c-2.4,0.7-10.3-3.6-12.8-4.7c-1.8-0.8-9.6-6.7-11-6c-1.6,0.7-0.7,5.4-1.4,6.7
			c-0.8,1.6-5.5,3.7-3.3,5.4c3.1,2.4,6.4-4.5,6.9-6.7c1.9-0.3,8.1,4.6,10.4,5.4c3.7,1.3,9.5,4.4,13,2.6c4.1-2.1,6.7-10.9,8.2-14.6
			c3.1-7.7,1.9-10.1,10.2-8.4c13.2,2.7,26.9,5.7,39.7,9.5C355.5,196.8,369.3,201.9,360.7,185.2z M288.4,138.3
			c-22.6-5.6-7.2-31.5,10.9-30.1c8.7,0.7,16.1,7.5,12.5,16.6C308.6,133.1,296.8,138.7,288.4,138.3z"/>
		<path class="st2" d="M290.2,135.7c-2.4-1.1-4.1-1.2-4.4-3.9c4.2-0.2,5.1,2.2,10.1,0.2c3.8-1.5,6.7-5,10.5-6
			C305.9,132.4,295.6,135.3,290.2,135.7z"/>
	</g>
	<path class="st2" d="M309.4,108.2c1.7-12.1-14-7.6-21.4-9.6c1.8,0.5,1.9,3.3,0.7,4c-1.1,0.7-3.5-0.9-4.7-0.6
		c-2.7,0.8-3.8,2.8-6.2,4.6c-1.4,3.9-2.8,6.2-6.8,7.8c-0.5,1.6,0.8,3.4,0.5,4.7c-0.3,1.2-1.5,2-1.6,2.5c-0.4,1.5-5.4,3,0.9,4.4
		l3.2,2.7c6-15.2,13.7-23.2,31.3-19.1L309.4,108.2z"/>
	<path class="st2" d="M303.7,121.1c0.1-1.2-0.3-2-1.3-2.5c-1.9,0-1.9,5,0,5C303.3,123.1,303.8,122.3,303.7,121.1z"/>
	<path class="st2" d="M289,125.2c0.1-1.2-0.3-2-1.3-2.5c-1.9,0-1.9,5,0,5C288.7,127.2,289.2,126.4,289,125.2z"/>
</g>
<path class="st2" d="M152,364.8c0,0,10.1-23.9,10.9-25c0.7-1.1,23.7-0.6,23.7-0.6l15.3,11.2c0,0,9-13.7,20.9-3s8.6,17.2,8.6,17.2
	l-15.1,8.1c0,0-20.2,5-32.4,6.2C171.8,380.1,152,364.8,152,364.8z"/>
</svg>
