<svg xmlns="http://www.w3.org/2000/svg" width="119.43" height="126.74" viewBox="0 0 119.43 126.74"><defs><style>.cls-1{fill:#8d8f91;}</style></defs><title>lisa_running_2</title><g id="Layer_2" data-name="Layer 2"><g id="Layer_1-2" data-name="Layer 1"><g id="LISA"><path class="cls-1" d="M116.71,103.91c-.27-.53-1.14-.75-1.73-1.12-1.62,3.51.76,7.65,1.8,11.28-7.11-.59-14.72-4.81-21.79-6.41-10.26-2.34-20.5-4.77-30.75-7.15-10.47-2.43-7.57-6.27-7.62-16.17A112.16,112.16,0,0,0,54,58.6c8.93-3.63,15.56-9.68,18.66-19,2.16-6.44,2.73-13.26,3-20,.29-7.83.63-5.7,6.39-9.87,1.34-1,8.26-8.24,5.16-9.65-2.66-1.2-4.69,5.47-7.13,7.24-4.31,3.13-6.2,1.24-7.43,6.66C71.32,19.81,72,27.8,71.5,33.76c-3.64-2.14-4.75-6.56-9.17-8.51-5.27-2.34-11.86-1.83-17.15.24C32,30.64,28.59,40.56,31.28,53.36c-12.69-6.91-8.61-17.61-15-28.08-3-4.86-3.12-2.27-8.16-4.39C6,20,2.07,12.83,0,14.82a4.64,4.64,0,0,1,.17,2.45C4.35,24.84,12.23,22.7,14.9,30.89c2.35,7.24,2.76,15.66,8.63,21.17,3.48,3.26,8.58,5,13.06,6.33,3,.88,11,.15,13.08,1.44,5.65,3.59,4.16,20.63,4,26.28-.22,10-1.43,16.91-5.49,26C47,114.85,45,122.56,41.91,123.5c-2.41.75-10.29-3.61-12.82-4.72-1.81-.79-9.57-6.67-11-6s-.71,5.37-1.36,6.75c-.77,1.65-5.51,3.74-3.32,5.44,3.13,2.43,6.39-4.53,6.89-6.7,1.87-.28,8.08,4.58,10.37,5.4,3.66,1.29,9.55,4.36,13,2.55,4.1-2.13,6.72-10.87,8.24-14.64,3.12-7.73,1.91-10.1,10.21-8.41,13.19,2.67,26.85,5.71,39.75,9.54C111.52,115.55,125.34,120.62,116.71,103.91ZM44.37,57C21.72,51.39,37.21,25.56,55.29,27c8.71.68,16.07,7.52,12.52,16.59C64.58,51.81,52.79,57.4,44.37,57Z"/><path class="cls-1" d="M46.23,54.44c-2.37-1.12-4.07-1.24-4.44-3.9,4.23-.17,5.05,2.19,10.07.21,3.81-1.5,6.7-5,10.53-6C61.91,51.16,51.58,54,46.23,54.44Z"/><path class="cls-1" d="M65.38,26.91c1.69-12.08-14-7.6-21.41-9.61,1.82.49,2,3.25.75,4s-3.53-.92-4.74-.55c-2.67.82-3.84,2.8-6.24,4.63-1.38,3.88-2.84,6.24-6.76,7.85-.51,1.59.84,3.36.5,4.68s-1.49,2-1.64,2.45c-.44,1.48-5.38,3,.87,4.37l3.19,2.72c6-15.2,13.72-23.23,31.33-19.13Z"/><path class="cls-1" d="M59.65,39.85a2.21,2.21,0,0,0-1.33-2.49c-1.87,0-1.87,5,0,5A2.22,2.22,0,0,0,59.65,39.85Z"/><path class="cls-1" d="M45,43.91a2.21,2.21,0,0,0-1.33-2.49c-1.87,0-1.87,5,0,5A2.22,2.22,0,0,0,45,43.91Z"/></g></g></g></svg>