<svg xmlns="http://www.w3.org/2000/svg" width="184.5" height="184.5" viewBox="0 0 184.5 184.5"><defs><style>.cls-1{fill:#c5d93a;stroke:#000;stroke-miterlimit:10;stroke-width:4px;}.cls-2{fill:#231f20;}</style></defs><title>Lisa_Coin_icon_running</title><g id="Layer_2" data-name="Layer 2"><g id="Layer_1-2" data-name="Layer 1"><circle class="cls-1" cx="92.25" cy="92.25" r="90.25"/><g id="LISA"><path class="cls-2" d="M156.67,132.13c-.29-.56-1.21-.81-1.84-1.2-1.73,3.74.81,8.16,1.92,12-7.57-.63-15.68-5.12-23.22-6.83-10.93-2.49-21.84-5.08-32.76-7.61-11.15-2.59-8.06-6.68-8.12-17.23-.05-9.51-.62-18.19-2.79-27.43,9.52-3.86,16.57-10.31,19.89-20.19,2.3-6.86,2.9-14.12,3.16-21.29.31-8.35.68-6.07,6.81-10.51,1.43-1,8.8-8.79,5.51-10.28-2.84-1.29-5,5.82-7.61,7.71-4.59,3.33-6.6,1.31-7.91,7.09-1.4,6.15-.68,14.66-1.21,21-3.87-2.29-5.06-7-9.76-9.08-5.62-2.49-12.64-2-18.27.26C66.4,54.07,62.79,64.64,65.66,78.28c-13.53-7.37-9.18-18.77-16-29.92-3.16-5.18-3.32-2.42-8.69-4.68-2.27-1-6.44-8.59-8.64-6.47a5,5,0,0,1,.18,2.61C37,47.88,45.36,45.6,48.2,54.34c2.5,7.71,2.94,16.67,9.2,22.55,3.7,3.48,9.14,5.34,13.91,6.74,3.18.94,11.77.16,13.94,1.53,6,3.83,4.43,22,4.29,28-.24,10.68-1.52,18-5.84,27.72C82.4,143.79,80.24,152,77,153c-2.57.8-11-3.84-13.66-5-1.93-.85-10.19-7.12-11.77-6.44s-.76,5.71-1.45,7.18c-.82,1.76-5.87,4-3.54,5.81,3.34,2.59,6.81-4.84,7.35-7.14,2-.31,8.61,4.88,11,5.74,3.89,1.38,10.17,4.65,13.86,2.73,4.37-2.27,7.17-11.58,8.79-15.6,3.31-8.24,2-10.76,10.87-9,14,2.85,28.61,6.1,42.35,10.18C151.14,144.53,165.86,149.93,156.67,132.13ZM79.6,82.18c-24.13-6-7.63-33.53,11.64-32,9.28.72,17.11,8,13.34,17.67C101.13,76.62,88.57,82.58,79.6,82.18Z"/><path class="cls-2" d="M81.59,79.43c-2.53-1.2-4.35-1.33-4.74-4.16,4.51-.18,5.38,2.33,10.73.23,4.06-1.6,7.14-5.31,11.22-6.39C98.28,75.93,87.29,79,81.59,79.43Z"/><path class="cls-2" d="M102,50.1c1.81-12.88-14.91-8.1-22.8-10.25,1.94.53,2.07,3.47.79,4.3s-3.76-1-5-.59c-2.85.88-4.08,3-6.64,4.94-1.47,4.13-3,6.64-7.21,8.36-.54,1.7.9,3.58.54,5s-1.59,2.1-1.75,2.62c-.47,1.57-5.73,3.17.92,4.65L64.18,72C70.56,55.81,78.8,47.26,97.56,51.62Z"/><path class="cls-2" d="M95.88,63.88a2.36,2.36,0,0,0-1.42-2.66c-2,0-2,5.32,0,5.32A2.35,2.35,0,0,0,95.88,63.88Z"/><path class="cls-2" d="M80.32,68.21a2.36,2.36,0,0,0-1.43-2.66c-2,0-2,5.32,0,5.32A2.37,2.37,0,0,0,80.32,68.21Z"/></g></g></g></svg>