<svg xmlns="http://www.w3.org/2000/svg" width="184.5" height="184.5" viewBox="0 0 184.5 184.5"><defs><style>.cls-1{fill:#c5d93a;stroke:#000;stroke-width:4px;}.cls-1,.cls-4{stroke-miterlimit:10;}.cls-2{fill:#231f20;}.cls-3,.cls-4{fill:none;}.cls-4{stroke:#231f20;}</style></defs><title>Lisa_Coin_icon_jumping</title><g id="Layer_2" data-name="Layer 2"><g id="Layer_1-2" data-name="Layer 1"><circle class="cls-1" cx="92.25" cy="92.25" r="90.25"/><path d="M163.24,69.32a2.3,2.3,0,0,1,.55,2,1.87,1.87,0,0,1-1.62.85c-4.25-1.09-7.87.23-11.2,2.75-1.17.88-2.11.82-3.46.1a76,76,0,0,0-9.44-4.28l.83-2.44c3,1,5.93,2.07,8.91,3a3.75,3.75,0,0,0,2.68-.2c3.18-1.78,6.44-3.09,10.16-2.63A5.57,5.57,0,0,1,163.24,69.32Z"/><path class="cls-2" d="M101.09,55.56a17.92,17.92,0,0,1,3.84,8.24,65.56,65.56,0,0,0-9-9,0,0,0,0,0,0,0A19.67,19.67,0,0,0,89,50.5C81.6,47.24,73.39,48,63,54.31l-2.18,0a19.08,19.08,0,0,1,6.39-5.58A27.24,27.24,0,0,1,101.09,55.56Z"/><path class="cls-2" d="M91.18,71.46c.35-.47,1.38-.45,2.09-.66,0,.77.44,1.86.07,2.24a11.89,11.89,0,0,1-3.76,3,23.93,23.93,0,0,1-5,1.07c-5.18-.46-9.6-1.23-13.5-3.65-.65-.4-1.36-1.73-1.15-2.26.52-1.29,1.61-.59,2.51-.12a25,25,0,0,0,13.36,3.08A6.74,6.74,0,0,0,91.18,71.46Z"/><path d="M63,54.31C73.39,48,81.6,47.24,89,50.5a25.53,25.53,0,0,0-9.1-1.41,21.63,21.63,0,0,0-11.18,2.53C61.45,55.51,56.28,67,67.35,74.42a29.74,29.74,0,0,0,22.46,4.67c11.46-2,15.51-12.74,8.32-21.91a21.22,21.22,0,0,0-2.19-2.41,65.56,65.56,0,0,1,9,9,15.38,15.38,0,0,1-.84,7.8,4.25,4.25,0,0,0-.16.82c0,.06,0,.13.16.37,1.53-1,3.12-2,4.55-3.11,6.77-5.34,14.33-6.4,22.41-4,2.64.8,5.25,1.68,7.85,2.58l-.83,2.44a46.44,46.44,0,0,0-13-2.83,19.91,19.91,0,0,0-11.68,2.7c-6.2,3.66-12.41,7.27-18.7,10.76a28.42,28.42,0,0,1-6.14,2.45c-1.72.5-2.2,1.36-2.13,3.05a66.33,66.33,0,0,0,3.47,18.62c1.91,5.75,3.77,11.51,5.62,17.27.33,1,.7,1.63,2,1.69,19.63,1,36.7,8.54,52.11,20.35.46.34.91.69,1.37,1a4.15,4.15,0,0,0,.8.17c.45-1.64.94-3.31,1.35-5,.2-.82,0-1.82.47-2.48s1.32-1,2-1.47c.37.65,1.15,1.41,1,1.94a63.22,63.22,0,0,1-2.87,9.51c-1,2.23-2.06,2.2-4,.63-10.21-8.21-21.34-14.69-34-18.44a72.19,72.19,0,0,0-47.6,2c-7.35,2.85-14.32,6.66-21.52,9.91A65.67,65.67,0,0,1,40,144.73c-2,.64-3.09-.31-3.3-2.18-.25-2.32-.29-4.67-.32-7,0-1.2.22-2.41.23-3.62s.59-2.27,1.84-2A2.68,2.68,0,0,1,39.84,132c.08,2.2-.2,4.42-.28,6.63,0,.83.12,1.67.22,3.06a58.72,58.72,0,0,0,6.85-2.38c4.65-2.25,9.12-4.89,13.78-7.1a81.17,81.17,0,0,1,32.09-7.89c-.68-2.26-1.3-4.41-2-6.54-1.84-5.91-4-11.74-5.45-17.74-1.1-4.51-1.29-9.24-2-13.86a2.44,2.44,0,0,0-1-1.74c-6-2.51-12.2-4.43-17.88-7.45-9-4.74-17.34-4-25.74,1-2.44,1.47-5,2.74-7.5,4.1-1.33.73-2.29.58-3.2-.84-2.32-3.64-5.22-6.41-10-6-.53,0-1.54-.88-1.6-1.44a2.2,2.2,0,0,1,1.39-1.63c4.1-.83,7.32,1.07,10.21,3.69.89.81,1.62,1.79,2.53,2.78,3.69-2,7.22-4,10.84-5.83C47,69.88,53,68.7,59.55,71.64a38.81,38.81,0,0,1-1.43-4,16.47,16.47,0,0,1,2.74-13.39Z"/><path class="cls-2" d="M107.05,54.65c1.06,1.49,7.12,1.34.66,5.2l-2.56,4.22-.22-.27a17.92,17.92,0,0,0-3.84-8.24A27.24,27.24,0,0,0,67.25,48.7a19.08,19.08,0,0,0-6.39,5.58l-3,0C51.51,41.37,70.7,40.56,78.24,35.56c-1.86,1.23-1,4.36.66,4.79S82.5,38,84,38c3.29-.07,5.33,1.71,8.69,2.87,3,3.82,5.48,5.92,10.46,6.26,1.17,1.59.31,4.07,1.18,5.42S106.71,54.17,107.05,54.65Z"/><path class="cls-3" d="M67.2,65.23c0,4.71,9.28,8.52,20.76,8.52"/><path class="cls-4" d="M77.58,64.07c0-1.1-3.53-5.1-9.17-2"/><path class="cls-4" d="M95.25,65.64c0-1.1-3.54-5.09-9.17-2"/></g></g></svg>