<svg xmlns="http://www.w3.org/2000/svg" viewBox="0 0 3.85 3.85"><title>Asset 1</title><path d="M1.92,3.85A1.93,1.93,0,1,1,3.85,1.92,1.92,1.92,0,0,1,1.92,3.85Zm0-3.6A1.68,1.68,0,1,0,3.6,1.92,1.67,1.67,0,0,0,1.92.25Z"/><path d="M2.58,2.16q0,.6-.75.6l-.28,0c-.16,0-.24-.05-.25-.08a.84.84,0,0,1,0-.12s0-.08,0-.15,0-.12,0-.12h0a.87.87,0,0,0,.37.08c.2,0,.3-.06.3-.19A.17.17,0,0,0,1.93,2a.46.46,0,0,0-.21,0L1.57,2H1.43s-.05,0-.05-.05,0-.21,0-.39,0-.31,0-.4a.17.17,0,0,1,0,0,.05.05,0,0,1,0,0h.91a0,0,0,0,1,0,0,1.79,1.79,0,0,1,0,.21c0,.11,0,.17-.05.17h0l-.38,0a.35.35,0,0,0-.16,0,.4.4,0,0,0,0,.15,0,0,0,0,0,0,0H2a.7.7,0,0,1,.42.13A.49.49,0,0,1,2.58,2.16Z"/></svg>